<mxfile host="app.diagrams.net" modified="2021-03-03T15:06:23.957Z" agent="5.0 (Windows NT 10.0; Win64; x64) AppleWebKit/537.36 (KHTML, like Gecko) Chrome/88.0.4324.190 Safari/537.36" etag="dL8JmIntp6-X75sw_0y4" version="14.3.0" type="github">
  <diagram id="7J-nJTwoDebg6b-AX5Ap" name="Page-1">
    <mxGraphModel dx="2187" dy="802" grid="1" gridSize="10" guides="1" tooltips="1" connect="1" arrows="1" fold="1" page="1" pageScale="1" pageWidth="850" pageHeight="1100" math="0" shadow="0">
      <root>
        <mxCell id="0" />
        <mxCell id="1" parent="0" />
        <mxCell id="-olVPYCpMihl_OrQ9UhT-1" style="edgeStyle=orthogonalEdgeStyle;rounded=0;orthogonalLoop=1;jettySize=auto;html=1;entryX=0;entryY=0.5;entryDx=0;entryDy=0;entryPerimeter=0;" parent="1" source="-olVPYCpMihl_OrQ9UhT-2" target="-olVPYCpMihl_OrQ9UhT-4" edge="1">
          <mxGeometry relative="1" as="geometry" />
        </mxCell>
        <mxCell id="-olVPYCpMihl_OrQ9UhT-2" value="Actor" style="shape=umlActor;verticalLabelPosition=bottom;verticalAlign=top;html=1;outlineConnect=0;" parent="1" vertex="1">
          <mxGeometry x="40" y="310" width="30" height="60" as="geometry" />
        </mxCell>
        <mxCell id="-olVPYCpMihl_OrQ9UhT-3" style="edgeStyle=orthogonalEdgeStyle;rounded=0;orthogonalLoop=1;jettySize=auto;html=1;entryX=0;entryY=0.5;entryDx=0;entryDy=0;entryPerimeter=0;" parent="1" source="-olVPYCpMihl_OrQ9UhT-4" target="-olVPYCpMihl_OrQ9UhT-10" edge="1">
          <mxGeometry relative="1" as="geometry">
            <mxPoint x="440" y="340" as="targetPoint" />
          </mxGeometry>
        </mxCell>
        <mxCell id="-olVPYCpMihl_OrQ9UhT-4" value="FunckyUI" style="verticalLabelPosition=bottom;html=1;verticalAlign=top;align=center;strokeColor=none;fillColor=#00BEF2;shape=mxgraph.azure.computer;pointerEvents=1;" parent="1" vertex="1">
          <mxGeometry x="270" y="317.5" width="50" height="45" as="geometry" />
        </mxCell>
        <mxCell id="-olVPYCpMihl_OrQ9UhT-5" value="" style="shape=image;html=1;verticalAlign=top;verticalLabelPosition=bottom;labelBackgroundColor=#ffffff;imageAspect=0;aspect=fixed;image=https://cdn3.iconfinder.com/data/icons/file-extension-vol-1/48/csv_file_database_extension_data-128.png" parent="1" vertex="1">
          <mxGeometry x="160" y="290" width="48" height="48" as="geometry" />
        </mxCell>
        <mxCell id="-olVPYCpMihl_OrQ9UhT-6" value="" style="shape=image;html=1;verticalAlign=top;verticalLabelPosition=bottom;labelBackgroundColor=#ffffff;imageAspect=0;aspect=fixed;image=https://cdn3.iconfinder.com/data/icons/file-extension-vol-1/48/Dat_file_database_extension_data-128.png" parent="1" vertex="1">
          <mxGeometry x="112" y="290" width="48" height="48" as="geometry" />
        </mxCell>
        <mxCell id="-olVPYCpMihl_OrQ9UhT-7" style="edgeStyle=orthogonalEdgeStyle;rounded=0;orthogonalLoop=1;jettySize=auto;html=1;" parent="1" source="-olVPYCpMihl_OrQ9UhT-19" target="-olVPYCpMihl_OrQ9UhT-18" edge="1">
          <mxGeometry relative="1" as="geometry">
            <mxPoint x="260" y="490" as="targetPoint" />
          </mxGeometry>
        </mxCell>
        <mxCell id="-olVPYCpMihl_OrQ9UhT-8" value="Actor" style="shape=umlActor;verticalLabelPosition=bottom;verticalAlign=top;html=1;outlineConnect=0;" parent="1" vertex="1">
          <mxGeometry x="40" y="460" width="30" height="60" as="geometry" />
        </mxCell>
        <mxCell id="-olVPYCpMihl_OrQ9UhT-9" value="Funky Design File(s)&lt;br&gt;(*.fky)" style="verticalLabelPosition=bottom;html=1;verticalAlign=top;align=center;strokeColor=none;fillColor=#00BEF2;shape=mxgraph.azure.code_file;pointerEvents=1;" parent="1" vertex="1">
          <mxGeometry x="150" y="450" width="30" height="32" as="geometry" />
        </mxCell>
        <mxCell id="-olVPYCpMihl_OrQ9UhT-10" value="Funky Design File(s)&lt;br&gt;(*.fky)" style="verticalLabelPosition=bottom;html=1;verticalAlign=top;align=center;strokeColor=none;fillColor=#00BEF2;shape=mxgraph.azure.code_file;pointerEvents=1;" parent="1" vertex="1">
          <mxGeometry x="460" y="324" width="30" height="32" as="geometry" />
        </mxCell>
        <mxCell id="-olVPYCpMihl_OrQ9UhT-11" style="edgeStyle=orthogonalEdgeStyle;rounded=0;orthogonalLoop=1;jettySize=auto;html=1;" parent="1" source="-olVPYCpMihl_OrQ9UhT-13" target="-olVPYCpMihl_OrQ9UhT-15" edge="1">
          <mxGeometry relative="1" as="geometry" />
        </mxCell>
        <mxCell id="-olVPYCpMihl_OrQ9UhT-12" value="Provision Client Data" style="edgeLabel;html=1;align=center;verticalAlign=middle;resizable=0;points=[];" parent="-olVPYCpMihl_OrQ9UhT-11" vertex="1" connectable="0">
          <mxGeometry x="-0.3174" y="1" relative="1" as="geometry">
            <mxPoint x="16" y="1" as="offset" />
          </mxGeometry>
        </mxCell>
        <mxCell id="-olVPYCpMihl_OrQ9UhT-13" value="Actor" style="shape=umlActor;verticalLabelPosition=bottom;verticalAlign=top;html=1;outlineConnect=0;" parent="1" vertex="1">
          <mxGeometry x="50" y="860" width="30" height="60" as="geometry" />
        </mxCell>
        <mxCell id="-olVPYCpMihl_OrQ9UhT-14" style="edgeStyle=orthogonalEdgeStyle;rounded=0;orthogonalLoop=1;jettySize=auto;html=1;entryX=0;entryY=0.5;entryDx=0;entryDy=0;" parent="1" source="-olVPYCpMihl_OrQ9UhT-15" target="-olVPYCpMihl_OrQ9UhT-25" edge="1">
          <mxGeometry relative="1" as="geometry" />
        </mxCell>
        <mxCell id="-olVPYCpMihl_OrQ9UhT-15" value="" style="shape=image;verticalLabelPosition=bottom;labelBackgroundColor=#ffffff;verticalAlign=top;aspect=fixed;imageAspect=0;image=data:image/png,iVBORw0KGgoAAAANSUhEUgAAAFQAAABuCAYAAAC5ijQKAAAgAElEQVR4Ae2dZ1gUSfe399k17IoiSeIwA0wOzDADA0jOAgoioGJAksiaUTFj2lVMa9Y1iznnnBMqZgExrzln3fh8+73XKbdnAUERkfV5/37oq3q6e7qr7j516tSpU9Vf/fe//8WXrfoYfPUFZvXBJJZfgFZzDf0C9AvQ6q2i1a3yvkjoFwn9IqEfbZY9evIEhcUXkJ9/HDt37MCOHTuwe/duHD9xAsWXLuPZ8xcf/YzqqvqfbZV/+OABlixejOTEDtC7uUEilUIoFELA54PP50MgEEAkEkEqk8HT3QOdM77H+nXr8PLly38V7mcH9GDeEaQmp8Lc3ByWFhawNrNA3Vq1oZVL0D25Jab+kIl54wdg8vCe6N+lPQK99DBt2BB16tSBsbExLCwsMGnixH8N6mcB9I8//sCR4yfQIro5ateujXr16sHexhYWpqYI8nbDxkVT8OjSYby6ebzc7da5Pdi6eDLaxkWjoXEDfP3115CJJTh+6jT++uuvGoX7rwKl6nn2XAH6ZvWFk5MTWjSPQW5uLkbmjIaXTo2fx2bjbtF+A8SX14/ifduZfavQNbkVrCxMYWfHw8YNG/Dq1asag/qvACWJvH79OqZMmQI/Pz+kpaZi2dKlWL9hI7J690ZMRCDyty9iIAngi2t5bHtStBWPCza/d3t5cQe2LhwHlVQOJycRFi5ciGfPntUI1BoH+vvvv+Nofj5SUlLg5+uHceN/wvYdOzF29BgEejXGoMwMUBWm6v3y+hE8Ld71XoDlQX5evA2H1s6Ai1IBmUyGJUuW4uXLTy+pNQqU9Nm5gkJERTdHZEQklixfgcVLl6Ff336ICGuCWWOz/wZ5DM8v768yzJKA184ZCY1CBBedDjt27gLVjuoykcq7T40Cff78BbKzhyDAzx/rN27CkmUrkNmzF5qGR2DM0H54cSMfr27k4+mFqkllSZC0/6RoGx5f3I/caT9A7shHQsvWuHr16v8/QG/fug2lQoFOHTuhc/r3UMmVsLe3R+voMFw6toVJ5+sre0tV8WcX9+DFtcO4fmILHp59v/40QC3cgltntmPKyP7ISE6Al04DK4tGyF24CL/++usng1pjEnrvwUPEx8YxU8jRwQGt41th1I8jMXTIEHRo3QLXT+9kQJ8UbjEAfXphN66d3I5h/XvAxVkBmZCP3csmGc4b4JXTUD0r2oqZo/tDp5RBI5PDtIEpLExM0aF9Iu7dvfe/D1Ts4AiLhibQa3VYuXIV8o7mY8XKVcgenA29zhWX8rfgSeE/rTg1RsV5a5HQPAS21tZoG9ME/Tq3w8JJ2ZUC+vDcJhTuycXDMxtx+/gaLJs+DBqFErVrf4uCgoL/baBTJk/GV199hbDgEBzIy8PcBbno1DGdbWkpaVBKZbh4dFMpULdObEC/7qmIDGqMoxtngUyh15errlup1d+1bCKUEkcsWrr0kzVOn7zK//b775A5iVi3cOfefZgxfTo6pnZEl++7sC01KQUB3t64lrfSAPRp0RYcXvczOrWLxc6lE0HV913Vu7LnXl7Yjh5pbTCgXz+8fv36k0jpJwd66eo1WFpaIblDElavXVcKJkFtGRePjm1jcefEWgM00qNHNs7G/AnZeHh2o+E4B46OPTxbWqK5c+Wlj85twv3T69mLWTFjOBLiY/HixafxUH1yoAcOHWaOjvHjxjF9yUkml4aHNkHOwC6swCVhkA4sDyZdc+/sVuRt+PktyaXrb+WveesFPCrciuNb5+PSwaU4sWUOXJRSPH369H9PQh88fIisXn1gatwQBJSDWDL19PLDkmnD8eDMhrdAlATM7ZPBf7/4AIb1Tnvr+nun1mPu2AGljpMtSmbXspk52Jo7FhcPLoUT3xZPnjz53wJ65+499O0/AAJHISxNzZh5VBIkt6/We2HrksqZQi+Kt+PVzXw8upyHWeOzsW3RODw7v80A8GnRVjQPC8CF/Yv/OVa8i5lje1bNxKzRfXFq+zyIHOywatWq/x2gd+/dR5++/WBiz0cbkQhmZuYY0K8/khKT0CQ0DM0imyKpfQcmsW46PWt4OAl8V0rAXl/dh1dX9uLE1vno3iEexzbNwrPzbxqtVxd3YPTAzujVMYFZBXSvm/lrcGTTXKybNxrRoT5YPCUbQoET826tWbOm2qFWuw598fIlfhyVg/rWNkiViHBA7wJLOx6kTkIYNzDGd99+h3rf1YPA3h5xLWIR6OuPtXNGMXvxXTDp3N4Vk5EzIAPr5o7CosnZCPF2R3aPZJBJROepMbtyeBkszEywacEYvLiwHatmDoetlQWsLMzQNNgLRzb8DImTFKaWNqyXdvTIkWqFWu1A161ZC1MbW7SRiHC1sR5jVQrY2wvgxBdg+5KJeHwlD6f2LEdME184OTgypwj1aN4HkwP6bd06qF3rG9Sq9Q3c1DIc2zjLAJSueXVxJ/Pmm5k2xMUDS9iLOrh6GpNksgyeFm5hQMcoFTC35UEkFuP8xYvVBrXagJIn6cTx49C56RHA4+GY3hU3G+uhdhDAplEjFOVtwNUT27BgQjbOHFqPbatnwVevhafeHZ3ax5Uym94Ht3DPQqYnqVUnvVr2+teXdiIhOgx+7q64lrei1PlHBZshcbLHDp0zpqpVqG9nx7rE1eWErjagDx48QGpqGhxNTbFQq8Ezn8Y45e4KubkFxg/tyRqGtIRoWJmawc/DhY0Lfd8+BgJrK8Q3CcDNY6tLFbwspA/9ffnQUgQ01qNzYiyuHF5uuPft42shcuBjl06Ns+46dBaLwBeKMXHiJLyuBqdJtQAl6Vy8ZCmMjOqji1yKe17ueOTtid1uLhAZ1cOu1XMZ0JNb5yIhOhQzRvVBr46tQUb2z6P6MNuwIpvzQ0Fy15Mxv2/lFHjr1ej7fVtW/UnHFuzOhUIgwhE3F5xx12Gvmwv87XnQ+/jgcF7eR1f9agH68NEjuOpc4cOzxyl3PR56e+KKpx573TSQGhljfe5EBpT65NN+6IUbR1exfvXVw8tZw1HSw8QB+dD0afHON/7PEp6nR+c2Y8FPA+GuVWHZtKF4eWEH9q+aigihBKf0WgaUoE5XKyHk8dA3KwuPHj36KKjVAnT8+J/QsH4DTFYrDTCpOp3Qa+FuYY3B3ZMYULIPl00bxhqGuyfWggzxDwVX3vUk3c8uHwBBLXmeWv+NC8YiyMuDtfq/Xt6FpdOGortGxao7waR8HtS7oK2jA5RaLQukKM8TX9ljHw2U/Jx2tnYI4AtwrbE77nq5GzJb4K5DF7EIEr4drp3cwVpcanlLFro69nctnYBTO3Lx9G8jn5wg1AWdmZOFqFAfZPdMYXqU7NTBvTthhE6DAndXg4QS2NkaFaQWFsjOzv6oXtRHA501cxa+NmqAORoVk84LHm6GjNLb3+qqgZmVFRIT4t8C+fDMhgr76x8CelT/DNB2ducC7F81he27axVIadkUG+aNYg0eOV9u5a9GeFAg5jkrDXkkmLTtcXNBc0cHuHl5M2ulshJZ9rqPBqoWyfCNjS0eeHvigbeHQTq5jBZ6uCJLLkVdMwt0SmjOHBRUuJ+yu6FLYizO710Ectd9CEC6luxJkkTqepKd2T6uKQK8PNE6KhRjBnXGnuWTcOf4WlYrlk8fjolDe7ChZU+lHJvUbwOllz9apQDP1BTzc3Px62+/VUmXfhTQoydOwtTMDP3lUjz29kSRR+lqxEE97+GK9mIRvrKyQZ3axsxZIrC1wpIZOaBhjsrCJPuSrr15bBW6dIjH3HEDcHDNNFw/spLBJR3Jbad3zMeCCYMQ6usOtVzIHCMzc/oi3VWDvBINEpdHUk/bXF3gbWuHtE4ZuH//fs0DHTdmLBpY2+KYXouH3h5vVSMus5QSVDKkfRwd0cjCBvHRUWy86PW1g6A+emWgUtADNUCkh8/smI+WTYNgbmqC+kYNYWJkgkamZqj1zTfIW/8zHHg8NDCqBxeFmDWE1ADGRoZhsEiE039X85L5o/3jei3ixCI4CEUorOIwSZUllKpEoJ8/hPZ8ZsQTsLIZLPubJJikox3fAZHBASjYv5K1/k+Ld5QCSv3x8gC/uHoIlw8tQ0JMJFMdZBaRGZQzoDMS45vCW6+Hm0bOqntmciumVs7uymWOkuUzRkDvrMR8Z0WF+SQpHaVSwMrICBs2bsQff/75wVJaZaCXr1yFQqFAR5GQASVdWRZgeb9JCobIJNBoVFi/cPJbQEkCl04dyhqY8nQr6c28dTOQldEOq2eNZNJKOpkG4+6eXMe6sDQoR7qVuqWcw6R9yyjE8/jY7+bylp7n8nnOXYcVWmfITEwwYviIKg2TVBno3j174OjoiElKGQPKZep9KSn/pS7O0NnYYHj/bsy3WVJCCeju5ZOQM+B71gEoDypJ79xxA+Gjd0XrqCB06dAC/bu0xeDuiWzrld4aV/OWM5h0vzlj+8FbLsY0lbzC6s7le5+bBm7W1oiPb4nnz5/XnIQuzF0IG4ED1riomBOEy9D7UgJK1b6zowAtm4bgzP7VoKr8uMQQMvWkcgZ0wdhB3ZnOLA8q6cTlM4aha1IcWkcFIzbCH21iQpDeNhrDeqcwU4mk88iGmfDy0iPegc8MeHr+u/J4Uq9FkEAAhVyBJ48f1xzQEcOGw8TBiVWh4kpWd64gVLUWalTwEdhj9oRheHo1r1S3kTxCp7bNQ/eUVpj2YyZofInMpJJ69UnBZpAOJfjUSJ3ft4jpVdK/VP3pWjrXJTEO5o0sESkUMpv4fUBJj6ZIJDAxqo+HDx/WHNDMHj1gJXBEkae+Qp3EASyZUoFI387UqCCytER0ZDCuUNTIjaOlgf0tXW1iQjF7TF88KaBAiNJQCRodIwnmNjpGPSLSq92T4iGwtoOjUAZrOx5aiUXMGfIuqJS37jIp6tepg4uXLtcc0LSUFDjY83Glsfs7q1BZmMf0OvSRyyDk8VmUMkUcz5k0Ak+vHsHrS6UDGcicoiGOMD89BnRpx+xPzhYtKa3cPjk/6DzFhupUCthZWkPr3xRB6YOh9giEvS0PQU5O2PW3p6lk3rh9AjpEIYNp3brIP3mq5oAmt0+Esz0fVysJtNDdFbPVSkj5AhjZ2UOs0cOlaVvIFDp8V8cEc8YOwJMrecz7RK43qs4EiqDS8G9GmxhInZwwe0w/VpWpBSeA1OrTPjlb1s0ZCf/GHvjmG2P2soRiGbRN2yGoUzZCOg+HUu8HKx4fznwHbHfVMNuYA8mlBHQYB/TEyZoDmpacAhVfUG6vg8scVa0Teh1W6ZwRJ3TCd3wHCOUu8Ezohog+P7HNp0MfSGVqfFu7Fny9vDEjZwDWzh2NfSunYt+KyRjcLQn+rloE63UQOjriP7UbwsbMHG1bNEFWp7bo3D4WrSKDIHMSwNLCFPY2NFbEh0TgwGaL8Ph8OPs2QViPHARnDIFS7wu+nT0c7flYq1O/VbtKAj1+qgYltHNGBhwEDjhUTjeOQFJvZKebC/rIpTC148FRooJbaBwrFAczPHMMQrr+AG1ESwh4tohr3gIL5i/AiOHDkZqUDJ2LFhpLKwyXS5GtVMBf6AQpTafhC9gAW6CnHu5qNZJiI1hffXjfdHirFHB3csQ6nQuTQNLVPKUL3KITEZiezaTVxScUTgIHCPkCHCmTfwI6WCGDSd26KCg6X3MSOnjgQFgJHLDDVVPqLZ/62wtOvtFIR0c4Okmg8gyEX+oAg1SG9xqL4M7D4NuhD/SxadBFd4BzUBR4jjJk9umPDevX4/Sp0xg8YgS6ipyYWfbE2wOXPN2w3U2L3nI5fCRiNA31x5DMjpiW0w/DszIQplZitFKBq5563PJyxwUPV+zV6xCmcIbavxl7lm9yP9Dzdd7B+M6Oh3Va51L5J6DpUgnq1amDq9eu1RzQqVOmwELggKWafzw3JJUrdWokiMUQ2ljDXqqCPjIBTXqOZjDDe49DQHo2fBJ7Qx/XkYEkmNymiUiAg6sf1O4+aNYsGlpXPQaIhbjo6cYsAyrs9cZ6/NJYj11uWnQRS+BjYYMEngDNbe3RwUmI3W463GqsZ5CopuzXu6C92gVS/2aG53gn9oYmNBbmPHtm9nEqilIy6SJEQljb2FbJe1/lntKmjRvBdxJiglLOCkuZz9drkSmXwZRnD5mLHl4JndGEqvX3w+CfNhBe7XrCrUWqoWAcyLKpukkriPT+MBMqMNRZhcuebwBxBadnFXi4YZRKiRYiIXa4abHF1QUxQiG2uGrB2cV0HVXpNI0WAr9/gNLz+Ao1woVClnfuvpQe0rtAz+MhLDyiSjNHqgz0zLlzbLpgZ5HQUICjei26kc4Uy+AZl4rwXuMQ/P1QuLfMqBTIUmCjEmHXOBh91c7lugWpsaNGpYtMiv4KObKcHBDEGkkdyw85YjhnTCedG6RBMaVepKXACWNUilItPUnnRp0GzqYm6NOnT5XmN1UZKMWp63Q66O35BqBU5cc4K2BpZw9tcAzCeoxCYNpAuMUklypMKXAlqnzZ447+Ueihc2UdB5K2kpJEv8nR0VYihtZZjV4ZGchISoazhQXaikXIlksxUeLIoAVp9SB1wt1fE94adewF2OOmKdUpoV7SLLUSDvWNMHf+AtAUoLIe+ff9rjJQunHP7j1QT+CAPP2bIVl6w6u0avgKBJC6eiOg42BE9B5vaHi4AlU21US2QSu9N+sy0r1LAt3lpkG4nS2bfZeXfxwXL1/BtV+uY/369YiLbg6fZnFo22cYgsObwVEkhTrkHwkV+YUjXiIuJZ10bwLaVS6F0Xff4cSJEx8Mk5h8FFCa9mdiYoLJzipD5mgEsb1EzBS+d6sM1hiV1wBVFqqTmy/GqZXMDCMLggo+y1kBvaMQrgFh8Pf1w6pVq3Hz9h3MmD6DedqHZGej/fDJGLLmAAYt24nopAyI5GrWkaDnWovkmOSsNOSZe1EksUF2tgiPbIob12/UPNA79+6DLxDAw8GxlPSMdlZAaGsHbUgsq/be7XsZqtu7QLpEtnnrOgf/KKRoXLBM64wJzgrEi4SwcXZF+oT56Ju7Gd6x7dCmfSLOFhRi3779eP7sOQho0sjpDGj/RVvQLLkrlI1D2L1dmrWDqVDKqjsHklKqAQs0KshNGiInJ6dKrruPllC6QdcePfC1uTlyNSqWKcrYBp2a9Zmd3HwQlDEUwZ2y3wJVFqy2WTvIPXzfMqeoeyrRecFOokA9ayu4+4ei74INDBZJYNqoGfAOaoIVK1bizp07uP/gIQb2H4Bes1Yhe9VepPwwGbqgSIN0ChsHI1IiLSUApI+P698MedO8KVrcgMpWle2jqjw9sLCwkOkcMl+4N06mSrJUDAehBL7tejI9WhZg2d/qsJZQaD0R2HHwW/AJqsInDAqFEn3mrTPAJKCDl+9CSNs0dM/sheUrV+Fg3lF0TE1Dv9zNyJq/AQHxidAEt2D3pJdmKVNjhFJeqjEiISCLwcPaGh1S03DjRtWqO/H4aKB0k7YJCTAzNcUilzdSSsqdxuld7flwi0pEeObYtyBVBJQ6AWXP0W+pxh2e/sHoMmVxKaAE9fvxcxAQEYWFS5bi7v37iGwSzqQzNXs0lF7Bhvupg5pDJFGwGsS9fE46B8gkEAtFbHo5zVypinRWG9DzRUVoWM8IEUIhM4wpkxRoS31vWWBzhPUcDX3LDEPBygPGPE+NA1mvqrzzUo8ASMRSaPXuaNWpJ7pOX2YAO3jFbvhHt8SPP/zIJiMEhDbBwCXb4eEXDHUJc0ns5oM4iYQ5dMhGpZ4XvfzlWmdoaNijdQKufORc0GqRUIq+69+vHxoZG7NRQ8okQW0pEUOq9URYtx/hm9j7nUAJoiq4RYVAXZq2gXNgc0hkKoidhHDRatEirRt6zFzJwCaPmISgwFBs2bYdzRNTEd4uDSq/poZn0guzULlihEqOk3odNuvUGCiXIpyGOxpZsiHozl264s69j5u2WC1ASdSvXL4Md3cP6G1tsUarZsb+UKUMSr4D80X6J2UZCleeBNIx59D4CoFy/9FGtoE6JBYSuRqOPB5kYjGCY1qh48gpcPX0Q1hIKHyDQ+Cs94U2KtHwTKVnEHROQgxXytFUJIKNPR/GtetAYGnL4pnatk6ApXkjjBw9Gk8/YrGCagP6+x9/YOXq1fhPvXqIEQuZsU96lGfRCJ6tO1fYMKkCm8Ll72qpCYl6L1AD2KbtoPKLhETuDL6tHexMG8LB1obtk2vOOSQWcq8AKDz8oNLo2Rok5K5rYGaB/3zzDSKahDN9ST0+mkP/9Okz9MzMhE6rxfH8/H9Xh3IKnGIrKXrN3MyM+RTX69QQNWoEXUwKM/A5GP+kiSBHiKNQCqnKFXKNO/NZyv2jIPNuAqnOEwqtBxxlSjg5CmFvZQNrY1NYGZvCxLgh27cxtYDAxhYOvDdOY4rlFzo4MicyLQTDs7SGtbEZeBZW4FvbsiU4Ll2+wqKVaVSz5BTFo0ePwqtxY8ydN//fiW3iQJZMLxQXIyEhARIrK/STSiC2tIIqNP4toK7Nk0CGvNI/AhKJEo5OYgZFzHOAWCyGSqWCp4cnWrZqhaysvpgw/ifkLliAtWvWYNPGTWyjntqKFSswe9YsZPboCW8PT0ikCrj4hEPjEwZHgSNCAoPYtUkdkpCclIzrv/wCCl9fv2kL+vbJwr69+wzS+OTpM7RJaMPWQPlXYptKgiy5f/z4cUQ1awaFjS2cbGyh8A1nQEu67mjfNSaFeaH08emgzdLKlq1ic/r0ady7/wAvP2A1G4qinvnzTDSObsO8XGR+CZ31CA0NZdK4ceMmZKRnoODcOezetQsTJk5iTuyiwiLcuXPX4AgZ1Lc/dGoXnCsowF9VMO6rTYeWBEr7hw8fRkyzKPCsbCDTeTKgHgldDI0EVXuCSs5e8pXSZmQtxJMqNghkfy5ZsgQeUa3ZaEBA+mAI9b7w8vbGLzdu4sq1X5CSnIJdO3fhz7/+woXLV7Bi+Qps2byZzZ9/9ffs5JUrVrCImPWbNtdsbFNZgOX9PpKXB39vH4gl8nKB/qNL33jt61k74eTZc4YqWN49KzpGQNeuXQuVVyDc4zvBLTYVIr0v9FpX5B8/AQJGqzksWrwEZLhfv3kLNOnr5MmTDDgHNC8vD2q1GrNmz2HXVfS8io5/MgnlHtitcxcIBQ6VAmos02Hjps1VBrp9+w5IXNxBDhBdVCJkXmHQKp2xedMmds+kpCRMm/Ezg3vll+s4fuIkjhzLx7nzxaCJvgQ1/1g+3FxdMe/f8Idy0N6VDs0ewoZsaaSzbJUvK6E8z0D8NP6nKgPds2cPpFoPA1C5TziUEilmz5zF9HGn9E4YN3YsLl25CgJK241bt9l2++495gKkl0ISSh2EP2synPFdEEueG5MzBrxGVpWSUFVILHpn9qoeoNEdoA5uwSyHHt17sCreK7MXKCbrzLkCHDt5CnsOHsL27duxZ+9enCkoBC2WMGzoMDQJCcXFKk5X/ORVfvrUacwWrExPiSQ2yD+gykCPnz4DPl9ucNVRj4pnbYPmzaIw8seRkMvkbO0TWv+ENi8PT+Y7XbZsGdPdCxctZjGvP+SMxrMqhDKSIH1yoDQv3d7cCraWVpBrPeESngByo5Wt7tzvRpZWoKk6JaW8MvvUKJ08cxYahQou4a3BuqiBUW8Mfj4fFOmycfMWJpmHjh6Do5MT2rVpix7dejBzytfbB5aWlkhPT8cvv/zywc/n8vjJgd6jOaDJKVCqVBA5OMLW2hYynRfrj1OhqfHgYFLayNoJp86c/eACEdCLV64iwNcPDmIlVC56prtFjk7o2q077j94UOqet+7cwcEDB7B0yRK2bdiwAefPF7OGiYNTlfSTA+UydbawCD8MHwF//wDIRGLY2PAgVuuh9A6DJqg56zURUDpGPSDuf5VNOaDhoWHwCwhAty5doZBIkdi23UdJXGWfz11XY0DpgeSEKCgswqRJk9loJfW5TU1MwOM5sF6N1M0XMrmaLfbCZbCyKZk91KhENW2GHXv3sTWbSXcO7Nf/g19OZZ9Z3nU1CpTLwG+//Y4LFy5i7rx56NmzJ2KbxyA4IBBBfv7MKxTepMkHQ6CFr6k3RKtE7D+ch4LzxcxiIL8C99yaSP8VoFzBfv/9DxZ2XVxczMbByQdAI5YqZ2fcun3ng0A8fvKU2ZXUG9qxZx9bpYFW4vH18wOtgcI981On/yrQ8gpHc9ZpBfBt27Z9EIQnT98AJa8TNTC0HPuC3IXQarXI/wj/Znl5fNexzw7o3bt3oXd1Q/agwR8ElIZhKNihd6/eWLd2LesN0cq5IqGQ/X4XhOo899kBpblBmT17okl4OMg/+SGFJaA5o3Iwfdo0bNy6HT179GBA165Z+0H3+ZBnlr32swNKniBaPdFdr8eJ4x8WX0RAydlMa9rTsDZNTPu+UwbIV1q24J/q92cHlAp69vQZuLvqmcO4sgWnSLnrt26D/Jl169bF5MlTcLkKEciVfV5F132WQO/du4f09E4ICwvDtq3bUHCuAHfu3gUtslWyIDS5lY49fPwYly5fRt6Ro5gzew6T0EPVsCBLyWdVdv+zBEoznekDAVRthU5OCA8PR3JKKnpnZWHUsB8wZdIkzJwxA7TQ67Ahw9CjR090SEpCXGwsUxV2trZV9hZVFlxF132WQCmzN2/cxMyZs9jQbouYGPj6+EIqlsDRlgeBHY+tVEa+AYmjEGqlCl6ejdE8Ohpduvdg1b6iAn/q458tUCo46UXqUl6+dAlnz54FDU8c2L+fDbLt2rmTpfv37WdDGWdOn8alixfZ4B6ZUJ8aXEX3/6yBVpTpz/n4F6BVGCp+1wv9rIFS1f3jjz9BfX6q/r/99lulVvem/7EQmyqMCb0LVmXOVQooZZBWL/z1199KbRSI8DGxlO/L4NNnz3Eo7yhyFy/F9BkzWC9o196979WP+w8cxIgRI7Bh8+Ya/wJYpYDSitq0wveC3F74nDkAAAd1SURBVFzMnjvPsC1dvoK5yd4HpqrnHz1+zIaVw0LD0MCoPmrXqoXROTnvBPrq1WsYGRmh3rffQcDjs4arqs+vyv8qBZT61/PnzUN002asYPW+/RZCRyfkjBqF0+c+3VcLuALNnzuPDQeb1TfGmPcA5RY2tDA1g0osw+7de975ArhnVFdaKaDcw8iLQ0ELVqbm6NCuPW7dvFUjmaWPVynFUpgaNXgvUMrr9m3b2YxmCi77kPgorpwfk34QUBrrkQpFbNXvjqmpbNZF2YeTN56igC9dvcrcaRXpWGo0yIdJ19M9yLNE/7lfzjofHwqU7kd6n+5ftrtK52iImM7RPsW10oDdzdu38fp1+V+xoaGbW3fu4tqNG3j+4gVevnrN/k8NJt2j5FZtQCnKorCoCN27dQeFvNASmHFx8YiNaYF9Bw6xh9KiKPGxsQgJCkZoUDBaxLRgVZK+9hUQEABXNzc2iJe7ILdUJssCJVgUHde+bTv2P/ov+UEPHs5Dq9atERUegXD/YERFRYOiSWjl2qnTpiM0IAgRAcHw8fbByB9HMZ8pqTG9uzvbMjMzcfly6XVGNm/ajGZNwtnEjKlTp6Fjx3REhEdg/rz55U6urTag9CUvZ4USzioV64dTDOagAQMgEjjA1tYOp86ewx+//46DBw+iaZNwJuVSkRhh4eGYOHEic7tZmVvAztoGGo0GR/L+Wb27LFCSCLI65syZw5YD+vnnmbh06TKbrHXlyhX4eDaGrYUlxA5OWL16NZNWivckpzXlx7qRJXwae4FCc+blLmSLHZjWawBrKyv8MHKkISSchplprJ6+I3r0WD4brqGPEkZHN0ef3n3KXTWnWoCSdNJHUoy/qwe/gEA2/ECFpg+XqiQy9m3OtJRUJnU09jN4yFA0qF+fBSGsWb2a2ZZ0D1pLjxoeGv6lZTS5qlQe0AvFF5CWmoazBUVvxSARONK3tNQ7AeXus2/vXrjrXGFtboFmEZHMrqXnUoAYBetaNDBBSvsO7AOE9J9+Wf3YtRIHJ2zdssVwn0OHDmHypMm4d/eu4Rj3jHcCJR1RUgdWpENJH9aqVQt8Gzv4e3mDzKltu/Zg1KjRbAF+4wYNIBdL2MNJd2UPHc6sBbVCiR3bdxgyNW/uXDT4ui4bt6cMc5nkgBLsUSNHsr69q8YF2YMGMSjcdVxKA33lAd2/f/8boGYWSE9LN9yfJq81DY9EIxNTVrVpAgbda8zo0ew+VK5GDUzZS5g9Zw7OF1+o8KthFQKlzzZu3LIFuYsW49atN615RUDPX7zEgFJMu4ebnknX8mXLsHLlShazSXGbFMZNmfwYoDbmjZCWnAovdw/25TCFXA76WkLZD/dVF1AaAVAqlWxtElsra6amjOsZQSmTY8GC3HK/eFMh0OVLl8Hc1IxJUkpSCoNBa4GQy8y8oSky0juBBtQIEoUEkoTaWVsjKCgIxRcqXmj/Y4BSVU3u0AEzpk1nVdHG0goREZEoKCxk+ahuCT196hSu37yJwYMGISg4GG46V0iEItg2smTtxfnzby/yUiHQfll9wafP6ZqZoVWrViw8mq13Z2kJ4/r1MXz4CMMndEgPuWg0sDY1h06tecsfSbbgtAlvqvDHAOXsUKo9rVu1RiMzc7YY18ABA0o1EJWR0K6duxpeQkVVPiQ4BNeuXWM6mmL+9+zejXYJCWxNKDMTU5w6+fa6ThUCXbJsOSxpjpGHB8jXePv2HXRKS4dR3W/h5+OLQ4cPGxoDMmNWr1wFB1seTBuaICoikg3dFhadBwUv9O7dB507dWEFuH//AQveql/PCA529li+bLmhypL5VPfrWhDY2GHQwEEGu3DWzzMhFjgyfdYrM5M9l8bvXbU6NGxgDJlEAtK/L/4OQaSBOYLvZGfPGg8u3JsaSbVEDgtjE8S3iDV8Rv3M6TMI9PWDeYOGLO9Ff0s8n8dD61atcOnSJQN86h02MDJCZHgEfrn2dpRehUAfPnyEESNHsZlpWX36sGEIZ6WKKfO9+/a9tR4HmTFLlyxFy7g4JjUSsRg+vn6gYNfJU6aC5ta/eP4CkyZMQkLr1ggODGLfqOuYkoazZ8+Bhnop6oO++UkBr0mJHbB6zRps2bwFXTt3YaZWaGAwOz5tylRmnE+fPgM+Xl7sXvTfyRMn46dx45l9StfSx1fp23ekvw8eOMhCc5qFRyI0MIiF7IwZPYZJNsWOxsW0AP2nVVw8i165f+8eW5grKysLvXtmMhOQPugaGhKK9okd2Nx8aow5NcOlFQKlC6j3QmK9a/cebN6yFceOHWO9o7KNAHczcq/RW6PrDhw4wDaatsJ1/8gFd/HCRRQVFeHChQtsO3fuHB4/ecJWUKCqxx0vPn8eN2/eZA0i7XPHKaXQHaoVjx49Bk3cpWOUsnsXFoFMKu764vPFuH37Nu7fu4+y9yEdSFC4a7mU8kcTwihv1BmhqThkWh08dIhFoVAjXdL64cpP6TuBchfS6CLpSe73/8WUXuCff75/aKVSQP8vAqxqmb8ALePcqCpI7n9fgH4BWtpdxknG55L+Px9A3ac8IOnDAAAAAElFTkSuQmCC;" parent="1" vertex="1">
          <mxGeometry x="268.90999999999997" y="850" width="61.09" height="80" as="geometry" />
        </mxCell>
        <mxCell id="-olVPYCpMihl_OrQ9UhT-16" style="edgeStyle=orthogonalEdgeStyle;rounded=0;orthogonalLoop=1;jettySize=auto;html=1;" parent="1" source="-olVPYCpMihl_OrQ9UhT-17" target="-olVPYCpMihl_OrQ9UhT-15" edge="1">
          <mxGeometry relative="1" as="geometry" />
        </mxCell>
        <mxCell id="-olVPYCpMihl_OrQ9UhT-17" value="Blueprint Repository" style="shape=image;verticalLabelPosition=bottom;labelBackgroundColor=#ffffff;verticalAlign=top;aspect=fixed;imageAspect=0;image=data:image/png,iVBORw0KGgoAAAANSUhEUgAAAKcAAACgCAYAAABpE3xUAAAgAElEQVR4Ae19Z1iUybbuvnffc86959lh5kzaM04eJ8840Ql79t6TxwyYUcesYxrjmIAm5yRJQUGSShAExBwQUVAxYUZEwSzm7Lj/vfd5F1T70XYLjYRu7B/1fP19XbVq1aq3VlWtWlX1h3//+9+wBZsMLBEDf7BEpmw82RoLMWADp63nsNie0wZOGzht4LR11bau2lwM2DSnTXPaNKe5rcYW36ZpbZrTpjltmtOmCW2a0FwM2DSnTXPaNKe5rcYW36ZpbZrTpjltmtMaNeGd3++i6uJVlJ84h0PHzmBzSTlWFO7Xh4UrtiIqPR9hKRvqHRif6bR0SJf0mQ/zY77WKK/G5vmR1ZwEAMPB8lMo3HMUaauLEZWaB5foXIzwS8VPk+fiX7/OwZfjZqP9qAh88ks4PhwWig+HBOtDu58D8I6jL94yIzA+02npkC7pMx/mx3yZP/kgP+SL/JFP8qt4b2wwWBq9Vg3O23d+x7Ubt3Dl2k1UnK7Chq37kZRbCNeYXPRyikf7EWF4Z0gI3hgYhLf6+eG13t54o7cXXu7ujue66vBMZx2e6XIvPNtVJ9/5H0Obbjo834DAdIoGn6SrzYf58jv5ID/ki/yRT/JLvsk/y8HysFwsH8vJ8rLclga0hvDTqsB55/ffcenqdRw/ewG7Sk9gwapiOM9Zih4z4vDe4GA838cHL/Xywms9PfG8nSue7VINDIKDgGF4wc5Vwot2rmjpoHhRvJFPCV10wj/LwfKwXCwfy8nystwsP+VAeVAuDQFHS6exenD+fvcuLly+jv3lp7GycB+841ai65QYvNrXF884eKCNvRvadHMV4D1Xo+VY6S0NvMbIn+Wg5ma5qgHsKuVluVl+yoHyoFwoH8qJ8mpp0NU3f6sFJ7uusuNnsbroAHzjV6Hr5Bi83MMDzxJ49m54oRsr7uG1IOmwi/1bFx2e6uQi4fGOzvhLByd9+I8fZuJ/fz+jzsB42nSko2iSPvNhfg8D3GrAulbTsXcTeVAulA/lRHlRbtbQ9VsdOO/evYvSijOIy8hHf10i3nD0wxOdXQSID1OpTEtgPNnJBU90dMF//+iE//XdDPy1sw7vDQjAN6Mj4DgjFiPdE+EUngmPubkSotPWI215ITJWFtUZGI/xVVrSIT3SJX3mw/yYL/MnH+TnYQHLsrGhUk6UF+VG+VGOlGd9NVlzx7MacN69+2/cuHkbkWkb4ThtLl7p4YGnOrtId9YQUKqunV3+Yx1d8J8/OeP13l7or0vAhODFmJO2AUvWFmPz7iPYsf8Y9h05ibLj51B55ryYey5euQGGG7fugLzVp+KkDLfuSDqmpdmI9EiX9JkP82O+zJ98kJ+3+3jjv35yFj7JrzSkBg5N2P1TbpQf5Uh5Uq71LUN9ytlYcawCnBwnHTx6GuMDUvFqDw883dmlQV0fASkTim6u+EsXHdr08MBA10REL96IwpJyAcmpcxdx9vxlqbCWsjcyXwKGfJAfgpf8kU/yS77J/7PdqsujGpq5jZRypDwpV8rX0sajVgFOjpF+doqr1pRddWYDk90iK/A5ezc818sbI/1SsWTDbpy/dA2Xr97E9Zu366X5GksjNJQO+SS/5Jv8sxwsD8vF8jW0+6cmpXwp54by1hTpLB6ct+/cQUDCSpnkmKsZ9PG7u6P9kGA4R+diP43YrcQOyHKwPCwXy/did3ezG65eRvZuImfKuymA1hCaFg/OE2cvYKx3ssyW9YKs53jrJXs3fNDfH5NDFmPnwQrcum05gm9IZZlKw3KxfCwny8tymysrWgsoZ8rbVD7N/d3iwXmm6hLGei8wG5zs5t519INb7AocO33eIgf8jVnZnNCwnCwvy23uOLQanAtAeTcmXw9Dq9WCk8bp70eHYV3Rfvz+iDhSsJwsL8vN8pujPW3gbIB7WkM1Jyvn61/CsHRjCW7eso4Jz8NoGaZlOVleltsGzgaAzdwKaCg4OXN9o7c3JoZkoHh/Ba7fvGUx3ZW5MqhPfJaP5WR5WW5zZ+42zdkAMNPO19AJEbVHu/5+GBeULhqF/pKtbVLE8rBc1JgsJ8trrtZk968mRJR3fRpDc8Sx+DHnpSvX8VtQGv7WQPsmK4qa5MdfozA9Mhspq7eLx86V6zctphIaUtHkn55HLA/LxfKxnCyvuVpTwNlVh2mhi0F5N4Sfpkhj8eBkod3mZOPJLuYN8LWTAVZWm67VIP18WCgGuCUhIHkdFi3fIg681BaWtjpiWNnkj3zS4Zh8k3+Wg+UhKFm+hoBSyempLjp4xORaDDBZfqsAJ4X2eKeGLVkq4bPi6PzA8JKDG97s4432gwJhN3UeRvqmQDd3OebnFGJ54T7sKTuJc+cvt2hFMX/yQX7IF/kjn+SXfJN/lkOV6WGASRlRvjZwNmDcGZi4Cs89pCuZAql6sjIZlJvaSw7u+OjnAHw2MgzfTZ4LB5dEDPVNxcyoHISl5CFp+Vbkbt4rk449R07h4LEzsoxIx4+bt80L9FgvP1kF0uEkhnRJn/kwP+bL/MkH+SFf5E/L78OCUclBPSlfytlQY7fku1Vozjnp+eIxpATZmE9VyXxSC3G7xJOdGVxkm8bLDu54q68PPhgYiPbDQ/HVuCh8NX4O/jUhGh2nxqLb9HjYzbgXhnguxLSoHEyPypEn37X/83eX6fPx7eS5Qof0SJf0mQ/z4zYN5k8+yA/50vLZmOVXtOiRFZtdaAOnua0xIbdIKk4JsjmfXGmhmxk1LD2aCBaOzyTUOB8rh2E+GZ/bJ1Tgu/Z//e8aGqRHuqTPfMxd2WksWbzd1weJy7fawGkuOLPyS/DpkGAZ9DdWZTQlHQJMhabMpzFpt/s5CJSzuXXTlPGtoltfs/UQPh8eKtqlMSvERqvacZkz/c+GhYJybkqwmUvbKsBZUnocnSfMsYGznt5Y5jY6Dim+GRuJzbvLbeA0twVVnKqC3eRoGzibEJzdJkWjtMLmbGx267x05QYG6BJls5e5WsEWv+7dnNScdpOicfj4ObPrxlxFY058q+jWWSDuUuRORBvY6gabuTKiXClfc4DTHHGtBpyjPJNs4Gyibp3gHOWRZANnQ1tcUOIq0ZrsgszVDLb4D9a2lKlH3EobOBsKzpiMAtkbQ7OHDWwPBps58qE8uecoOGmNDZwNBSfXn9v28mqxFRRzKtza4nI1y9JWh4gTqxlzbtl7FO/2D7CZkxp53MmVrLa9vbGicJ9NczZUc1acPi97sy11zMlKJm9Pq3X3miff+Z3/W6JGJW/v9g8EFzoaWjdNlc5qNOfNW3fw1S9hFqc5WblPddaBjhOfDAlC+5Gz8M8J0fhuylx58p3f+T/jMb4lgZT8tB8agnMXWtZ/1RjArQacZL7z5BiLqVxuh2DFvtffDz/9Nk9muzwae+O2A9h/9DS4qsUn3/mds2HGY3yma8g+n6YANXn5enS4xWlN1rdVgXOsf6rZhys0doWye2ZXzXEaTxKOztgoR8LQgZhOx4aHf/Gd3/k/j45hfKZjetJp6e6e4Ow5LdYGTmOq25xvPvNXij9lYwOuvvQIJIYvRs6Ce9xK7DxYies3buFuPb37GY/xmY7pSUfRrC8PjR2Puy6nhGbYwGkOEI3FzcjbpfcMb+xKqoseQfRKdw90/W0eUlYVo+rClXqD0rAsBCnTkw7pkS7p18VDU/xPZ+eoRets4DSsJHPfSw6fkCVMdkVNUVGmaCpgdps6D5l5u3Hp6o1GqUzSIT3SbQmActzLLSG5G3c3SnnMrc+64lvVmPPytRt4vINzs0+KCM6vRoQiLrsQVZeumqxInlXE/4+fOY/K0+flyfcHndXE/0mX9Jtbe7KRc12duzzrAkpL/G9V4KSA2vbxblZwEjDvOvpgZlS2HK5q6gx1gnHzjlJEpG7ApFmZGO2fJk++8zv/N1bBpMdDW0mf+TQnQAnOxzo446qFHjBhdeDsPj1OuiJTXXBTfO84PgqrC/caPcqGx8EU7y2XUze+GB2O9wf44/VeXnLmOp9853eeysF4xo7D4TfSZz5Nwb8pmgTnG319jDYaYw2pub9ZHTgnhmZK125K4I35nVqsbS9P2eZ7/qLx7jy/uFRup6CRnUfmyA7Kmq283M7Ld37n/7zFgvGNVTLpczsx82su7fl0Zx16zphvlB9jPDb3N6sD57zsQvA+n8YEoSlaBBZ3ffJGNGPdeUnZSQzxTqmXQ0o10L0kPtMZVjTpMx/ZZWrm2Zqm+K/rO7t0DkEMebGUd6sDZ/6OUvzx++YBJ43k30yMQcnh+8HE2y54HcsHA/zl0IO6gMD/eTgC4zMd0xuCgPkwP+ZbH3oPG4eNPG5p0X18GPLVUu9WB86qS9fwx39NbZbK41p4L/cFRm8721d+GkO9FslVKeo0jrrAwni8WoXpmN6w0nmrGvNjvnXRaoz/2ch5FpMhH5bybnXgvHr9Ft7v798sByxQ0/3in2a08lYX7keHCXPkMC1zgMLDt5iO6Y2BgPkxX3NoNjTuH/85FecvXzPKhzHemvub1YGTJ/jaTZnb4Iuy6luRHCO+5+iLkIXrjVZeysqt+GBggBwlU1+ajMejZ5iO6Y1VNvNjvk09KaIHPG9xs1QzEmVjdeCk2cUrbgX+2sG5SbULwfFWby9wPd8YiAiuTwcHyWzcHHDKJGtwkElwMj/m29TgpBnJYeo8i74gzOrAybvDF63Zgf/TDJMiAmR0gOlu/YdxkXJddn2BxHi8u5LpTHXrzK++9MxpFIZx2bido7LEY8pY47OEb1YHTp7wy9N9/+8305tUc7IyOTHp6ZYMOjobVtau0uMY5LGgQRMipmN6Q5rMh/k1x4SIjXvu4nyjkz1Dvlrq3erASUFxywaN2k29E7MuU1JMen6NKal+s2s6WtCUxHQtbUr6f99MR9HeYxZ93LhVgvNU1SX0mDavyR2PlRF+4ari+7QcG0nZiSoM91kkd04yrmHXqX2X/7u7S3ymM6aNmE9zGOE5bHi9p6c0cmN8WMo3qwTnuQtXMDEoDX9phkkRlxNnzl6Ki0ZMLvQ24lXTXZ0S0MbeXYznhmYgvlMD83/GY3xjXkqkz3yaY/mSk6HOE2bjpAVd62KsQVglOK9dv4nYJQX4z+9nPFBbaTVXQ3/TcP6jTGD2GgUVgbb/6BkM90/Dh8NC8WpPz+qTjDvr5Ml3fuf/jGcMmPxGxw/mU1+DfkPLw3R0k5sYvBhs5MZAYSnfrBKcnLEX7CrDE50e7nqT+lQwu2MeOjAtPAtHT1aZ9H7n/T3rtx6UWy8c3ZLR13Mh+OQtGPxu6n4fesWTLukzn7qGB/Xhua44f/7JCRHpGy3axskGYpXgpKbZfqACXwwLNdsIXlfFGf4v5p+uOnw6KBDhqRtw9nzDt2cYaiQCk/RIl/Q5wWsOMxKHQ8s377XombpVg/PA0dNwdIlvlpPnCBiG78ZFIXHZFlRduGxSgxoC0NR79T6iy0KPdFUeho2jsd/ZAN7p64OiPeVgD2SKP0v4bpWak3eLn666BF10Dv70k1OTjzsJEIKHdwFxXZwArTxzocGahw4eTE861evz7s2iMVmOJzq5wH5KjGxTtvRb66wSnGzVXBOOz9mMxzo27TKmVnMpgH49JhJ+8atk5n3xynWjvp7GNA99NhmfM3amJx25/KoZd16yMf82KwOnzl0CG7kxPi3lm9WCkwcVcNz0vqNvs3nxKA1K89D7/fzgqEtEdEYBCkuO4PjZC0a3YLCi6Q/A/xmP8ZmO6UmHgNc2gKb+/XRXV8zLLMCVa42zg7QpgWy14GTXWFRSDvvJ0U1ujDcGGNoKqfU++DkADjPmQxezDPFZm5CVtxPrtx3C+uJSefKd3/k/4zE+0zG9MbpN+Y0eUV8MC8GaLQdMNqSmBJu5tK0WnBwvHTtVhd9CF8s4qikr1RRtaj1W+Av27njX0VfuqOQW344To9FpUrQ8+c67K/k/40n8ZtaWin/O0od4LpB7O43ZW80FT1PHt1pwUjDsmpKWFaFdf78mNympCjb2JEhpPKeNkk+eFKyC9ntzd+FaXjmEeNPRF9GZBbhgZLWrqYHWEPpWDU62ft6+y2W/F+2rr3fWVojtd/V4lsDkUGJ8QCoOHTttdJWqIeBp6jRWDU4Kh7a6vWUnMcY/Ba/29GrWyZE1gJ/AZOgzMw6bd5UZdf9rapA1lL7Vg1MAeud3lJRWYox/qg2gmvGsAmbvGbHI334I3OLSUKC0RLpWAU4B6O+/y47GqZHZeL2vj9xXzsqxBu3WFDyKNaGHJwa6JWPTrjLcuHX/VuSWAJw5ebYacLLQNHIfPVWF2Wkb8K9fZrXIiXRNATRzaT7eyQWv9vHGzKgcOV3ZGmbmxkDbqsCpCsjT6GhrHBuQhud7eoKV1RyuaOaCqLHj8yDYp7roYDclBotWbMHJsxetqhtX9aeerRKcLJzYQU9WIXlZEXrPnI8Xe3jKmUUEaUuadBobkCyLDF8c3PHTr1GYk56PQxVnG7zur4BhCc9WC04l3Os3b+PoiWqQ2k+Pwyu9vfG3bvcO3GpssDQHPWU75bjyeQd3fD0qDOEL14GH63LtXpXd2p+tCpw0Kxk7YpCVxO9nqi5hzeY9so+n7YBAvCLOva54rovl3G5hCtwEJMHILR8vOLjj+T4+6DwpGkm5hSg/cQ7Xbxif8HAidO3GLYt3jzPWkFoVOLkrc8P2Uhw7fd7o7kYKgLdbsMIqz5xHZEoeuv02D2/1C5AZPs8xYjepnH75WxtMAaeh30lbm1abF3+TD+7YfLm7O97s64O2AwLw4chwOEXlyE4AlsPw9g5VydzdSTlk5ZcgZ+Mei9+SofjWPlsVOHccqEDfmXFg9526bieOnKwSrWHs+EKtEDjDX7hiK8YHpsNu6jx8MyZCbouj59AbvasPguUKC1ehuCxJ4FTbEKvBQwCpoMa0tYAmhvB7carj3msELzu4CwB5PEzbnp5yHA1PE/nHL2H4cUI0hvumYHZGAXYcrHxgl81yUkuy3Cy/3bRYfDAgALFZhbh01fq6+1YFTm4Z5p6dp7vq8Ky9O/q5JcnpILz/h7sb6clED3QtMA1/8yqW3YeOIzNvFyJT86CLzsWogDRxc7ObFocffp2Nf46chfaDgwREb/f1hgpv9vHGm729jAYVh0+ehdR+UKCcA//t6HB0mTIXfXWJ+MU/FVPDsxC2cB1SVxVj064j4Kl6D2pcLA/LRfBxIpSyZgccXZOk/PR1/XZMBAp2lj2wzIYysJT3VgVOVtKi1dvxXr/qW9J4cu/rfbzRX5eAORkF2Lz7CE5VXQR3bz6owrWVQ4dcbk4rrTgrmmvt1oNYsn4nFizfgjlpeQhfsFYfvOevxMzIbMyIyKoVnCKz9XEYf3bKeiQtLRQ63HVZuPsIuO2k6uJV3LlTv60ToiWv38SZqsvYtr8Cc7MLMchroRyjTdOZ2ig31Guh0eMWtWW01N+tCpwUcv6Ow/ju1yi9jye7X4KU6+5dp8TAde4yZKzfiQPlJ3H2/OVG3YHImTK329YOl2UTW2MBgDsAyPfB8pPI2bBLri3s6ZIoFzkQlGpVjMMK7uYMWrDearyQDGXU6sDJ8SP3iHOvjHayoUDK8R7Hcv3dEhGYtBZLN+ySiubkwZwtF4aCbKp3akjyxQMQCEjyS74HuCfiu9HhaGPnhsc73gOlKjMnUx8O8EfGup1W44VkKMNWB07OYH2S1sq4k9pDVZb2SZPMYx1d8I6jL34YG4EhHklwjl4mZpm8bQexq/QEDh8/JxqquZ0lmB8PdGVj2X34JMgPzUVusSuET45RyTf5p+Oy0pTa8vE3b2b7aXwUNu08bJXjTQK11YGThUpfu0O2Q7DyDCtN+86KZRwGTmb+MTwE3/8ahYHuyfgtPAshyWvlHM01hfvEeYJgKT9RJTs/L1+72WCNxLVupucOUtIjXW56W7flgOTHy1td5y3HYI8Fws+XQ4OFP/LJE+hMAVJbtv/p5IJhfqlyYIOhRrKW91YJzpLSE3Bwir+va9dWnuFvVji7fGqcF+3cBAzsFr8YGozvx0bIQatDvBZiSngWPGJXIDh5HeYt2Yz4pYUS0lcXI7dgD3I3770/FOwB/1dxmY7pSYf0SLfnjDj8+GuU5PfxwEDZ1kGzFfkhKMmbIc+m3tlj8HoZ3+R1VumNpBpPqwQnHT+mzc7VT4pMVaKp79VArQYrhwAcvzEujfRv9PbGO44+Yg56v78f2g3wlz1CXw4LxtejI8RGSjupNvA7/+deIsZnOpqTSIf0SJf0mQ/zY1C2UFM8Pug7gfnJoEAsydtltV06AdoqwUnb38KV2/Dhz+af2W6s0g0N6mJor9kzpFZx1LcHPQk4xld7jfRxNStRxvI39xu7dHuneOw+fMIGTqWGLem5bf8x/DRlLp7oXHvWbm5FW2N8DgOcYpaBN49YUp2Yy0ur1JwUAs0vM+bk4iXeZf4IecQTmJ8MDpJJoblgsLT4rRac9EJavG4HPhseIhMKa9SA5vLMRsjZfC+XBOw3cgmXpYGvLn5aLTi57Hjk+Fn0d000a6ZrLiAsKT7B+VYfbwQkrRUHkLoq39L/b7XgpOA55pqXsVFmx+zuLAlITcHLk511+Oe4SBRsP9RgG6wlAbZVg5Oz9n1HTokNUWbIJlaMmgIozU2Tje/tfn6YlZKHqkvGr9+2JODVh5dWDU4KgP6NKTQrDQoU+2Fzg6Y58qOJit7xI3xSUFZ51qpn6FrQtnpwsrAnqy7BZ94yvNbbq1UBlPZXriD9zc4Ngz0XitudtnKt/fcjAU4B6LmLcJu7DC/08cazVr4Dk6CUVSQ7V7wzwF+8lOhGZ+1gNOT/kQGnKnjeln3o65KAtx195XArrthYix1U+LR3xXPdXNGuvz+Gei/C5pLyVgdKVVePHDhZcHqcz8sulK0XHw7ww0vd3cF9PFxTV0uVzTFWrCsP4aWGJ+5h4ka39kOCMdBjAZYW7DG5uU1VrrU/H0lwqkrjpQEJOZsxOTQT346Nwrv9/PB6Ly+8YO8m699qhk+Q1AWkxvif+bCBMF9222ww3PDG+zJ7OcXDJXKJ7C2y9mVJJf+6no80OJVwOF5btakE87M3Y0JIBjpMnouPBwfjLfEa8hKQ8CpqHvdCk41y3rjPgYNarh6B6UiDtEiTe9Gft3MTIHIL8Dv9/eR47D7OCXCOWIL47M3YfqASV67dbLVduKoL7dMGTs1uTB7KwG0evDI7a8NuhC1cj0mhmdL9/zgxGp+OCMXHQ4Lx4cAAvN/PVzbS8fZi7tXhtt66gtr2yyO43+vvj3YDA/DR0GB8MmIWOkyZh5G+KTJpi8vaLI1l58FKcUi21oO4tEBryG8bODXg1AqQgLh45YacO8916t2HKpG39QAy1+1AQvZmzEpeg+DktXCNWYZfgxZjtH9anYFa2Xf+SgQlrkZE6gYkLi3E8o27UbizVOiXHT8nu0O5ia2+u0O1PLe23zZwmgCnsYqW00Ju3sblqzdkUlV14YpszT1+5jwqT9cdTpy9AKaRcPGq0Ll1u35bgY3x09q/2cBpBjhbOxgsrXw2cNrAabGTLBs4beC0gdPSugwbPw8+M8oS5GPTnDbNadOcltASbTxYvrbU1pFNc9o0p01zaluE7bd1abCWqi+L0Jw3b92RQ1K5xq1CY62S8MzO85eu6emS/qWrN1rNCoxayVJy45PlpUxbClSNla9Z4GSh87aXInHZFsRnFz4w8BDXVUUHsHFnGfYfOWVyNyCFuGbLQbhEZeO30AxMCU7H5IAUzM3cBJ5U/DDLeDdu3UHetkNwj84Rmr/NysS4gDS4x+TKCk9jCbGl6BCYR05UITBxlZSPspsYkoFpYUuwofjQowXOkkOVGOSWKEfw8byfBwWeCcTjYD4ZFITvx0VhmEcyFiwvuu/gfG7G8ktcK+5qr3R3x6vd3fGCnRsG6RKw61BlvU/6NQYQNqbQhevBg7FIu21PDzxv74b3BwTKuel1HcFtjKYlfePe/PztpfhmVJicV8/y0efz1R6eCEvNf7TAufPAMdhPm1dzElv9fRzpbkY/RZ4rSUeJytNVesHx7m86ULzv6FvLl3GQayLolcNuWQsIbljjGjWPqV637RCSV25D0d5jRjUzT/0IXrAOH/T313u701Wt3YAA0TitAZzsGf4+LERfJ5Tzyz08MSt1Yy25aWXYXL+V48yBo2fkRr2U1dtx6OjpevNlVrdOcPacHnvfJjFWOJ1j63K4pa8jD/qP1VxIT6/0gMQ1cuIafRtJh8dk93OKA2/HMATnpKA0qYg/fDcDDE/Yu8sdjyeMXKX3qIDzq+Eh+jPgCc5XCM60lgXntr1HBSs8YVrV1ZMOHnLgQ30bR6OA8/VentJlcm+LHF5g71btSGsAWILzle4e6O+WhOIDFdKCCKDojALxRG8/NASfDwvFx4NDMC44A6WV5+SaQG1hPhoYpG8I3BJL51zv+FUy4dHG428bOFvOKsC5Bv1cldKig3Xbvj6IzSlsXs053CMRUSl58I5dBo+YXAnuMUsxyjMZ7QYGidc3tSq3IZDJjhPmYH1xqZxKwTsqy09WgbdUaA9e3X6gQi4TMOx6vxw5S19gGzirJ3yWqDkJzo8G3VMkLQbO+UuLjN5Kcfb8VUyLzK7V3VN78m6c5Zv21LoKkLNyAlXC73fBs46UJiRAFUjrAifTqbSmNOcHPwdIgyBNznhv37kjN77xDiLelcmhxIOsBPxP8qm5Rlvlp/g1fEp8iVt97bbh/4bvjE8eeL49z4gnX7yRjRMgXgWjZMF3jjnNAaeSL8utgmH+6p18MA/FA5+0rnDHgOJBxdU++Z8pcMbVaM7qerqrr2NtevW7Ubp1Zki7pCKqnjdv3xE1rjQmtSfHp1+OCEXG2h0CBAqAdsejp87LJIXe4Icrz+HM+StSQRQgnXN5m8TZqsv4bFhorXk4/7EAABKySURBVPHVG3284TxnKQ6Un5ItDcfPXJC4rFBT4Gw/LEQulKq6eAVllefkPPbsvF1YuKpYLscq2nMUx89euG+SRV6vXL8Jjm/pXEyeKk7xealWQ1PlZyWxbIxLvnilIeNznG04lmaam7duy2VeR09WoXh/hTRgTiLIF/nbuOOwWDCYvwJrfcFJUFIeND1RviocPHbmvr1J5I1xyUfhrjK5kYOmwcXrdsq59Tzi58z5yyIf0lXlpcwpE4alG0vk9jjWt9R7Nx3ecPRBdHp+jYP2BVScqhLrDRuAoqF9Ngo4Z2dskgP4tYT5m5lSq2onShyTfjQoUC6Zopbi7HtpwV5MmrUEo/1SMM6/OsRkbpJCVF28hrnpG0Ab5dSwTLzR11dPj6DnGPaHcZGYEJQm/08KXgznyCwU7jqMi1euGZ2tfzwoEFGLC+AfvxLjAlLQfVqsaB+av2iW6escj+kRS7BkQ0mtO3zIK+85cp2bK3xODlmM8YFpcJqTK7dfGGpQajnuRSLfUq6AFEwMTq+x4d67C52g5w0aNAtFLFqH8cHp6OMcj29HhUsFc78RtSP5HOyaiAnB6dhSUi7yrS84aRUhuMaHZGBMjYzJUz9dggyxWF/knxeCbdl7TC4VI6+9ps/DZ9w39XMAPh8agg7jZ2OIexLcY5cjK3+3NDp1sRcv+5ocmiF19bPLfP1x4mpIx7kJJ9SUB2VHPmYtXCcXyxpih+9NDs7E5VsFTAQSmeQAmZorbXWxtH7aOX0TV8tsnf+pQFPSwaNn5MqVIR7JMsHikEALdO1v/sdA8PO8dS4UsMINTUkcp3LL7YcDA/FmX1/JT3ZD1lxzLb/Z2u3d8d24KMTnbgHPmKewWMFx2YXgxI18Mj9qhjcd/bB1f+V9J7uxcfrErZRKIl3OpDlJGOmXCppXBBA1++gXrS5GrxlxeNfRRz82v4+vml2bT3R1RfLyLbXASX4oD2OzdQ5bikqOYIAuQQ6SUDKmVaRNLy9s3Xdvcso9Ur2m885M/5pdp9XHhGt5YR68dOybMZEITFojGpY9HHl6vrtHnUdOUm6kwfwdps0DrUDNDk6OmcJS8oQRgoLCI0h/GBeF1YX7pWtjhfNKFdo5WdEUAoVnCE4ewk9TEwumBaWiybRMx7ODaE+NX1qE85eu3gfO6gq8dy470zAt6SraahjyvJ0rOk2KkfGTAmd8TiE+GxqCZ7vc45WabVsd4BSaXXX3gZPDoWUFJegxbZ70AqoRqzIqvvRPO1f8uaurXJVI8Cs7J2VTXbbapiRqQw5RXGNypdEq+izz011dEZi0ToBBWquL9qPj+CipA3191dwyQjmx4fM7g6on7kKdvXijNNxFq4rxbHcPkY3iV5VDPQlKJXPy3GN6M4GT3RPHhxzH7C07iYIdh+HoPF/fkiiYV7t7YIBrIrbuOyaTDi04FThYcAVOjnvG+qXglV5eshWXBx6oeCwwf79kz+AmhyEQUNSKSSu2mgSnEhyFTHq8HZiagisrSoh88n/eoxmRli9airwm5xbi78OrNSfjkNf6gFN4rbnyT6s5Dx07I13hW328pOFKvJoGyDLxpmIps3rauYptlwsRCpwPmhBRQSzJL8FXv4Tp64F5sHH1dE7A+cvVtwnzOvBffFPweEdnvQxECzu4o10/P3w8OEjkyjG+8FSjpZ/s7IJOE+fI3aDpa7bjVUdfcLs073UyrCvSIwZecvCQ/3j7XB+XBNl52uSa88q1G0hbuRX9PBfKXu9OE2bLsiGFwfCygxu+GRuJpGVbBMRKGynNqUCnwEmAExBZ63cgeFEe5mVtliVTtjxViVyu6zwpGtMic+TGYN4aHLIoT26SMDYhYh4E3VcjQjHIIxnTo5YKXY5xJ4ZmynEvig8+X+vphSkR2TLZamxwsivMLz6ErpOj9cBhnly+/WJYMMYFLYYuZrm+XBzbjvJLwVDfFLkl2BQ42eWGpxfIGJLgH+y1UJY1tVqT426usMmM/e5dmcBwwkLQUrYCzB4e6OM0H3MWb0TKqmIsWLFVJp9fDg/VA5h1xaHK0k175ea70JQNCE/ZgN8isuQ8KlVXpMfz+Tmed4tbVVOmFUhcUSynADY5OHkjmVN4Jv7UwRlsUWKQ1xzlwnt3XObkyOxWMfMgzamWL7UzQmOmJJ/41Xqwa00UxsDJ7oxHziTmFklr56SMvFDrlx2vEkCIRtW3cncM8Voks/vGBicnWIvXFOOfI0KlqyMoWNm8r8gvYZVYBciXkhXBePLcBTn4gd9MgZPl44SP9BNyi+QCAwUSAb+Dh0ziLtRoTc7O/RNX468dnPSgYzxaVbLzS8R0pHjgUeac0PDqbtGE3VzlMjL32BW1Jo/GTEkEf9KyaiM864kNQ1s+lYd6NuqESIGTx6tQ0IaBd41PDsnArkPHce1GtempPuBUzPJpDJzmrhB9PCgIPCdJS5e/qfn9E1YJ36wc8k9tP8AtWa6FbmxwsvEk5hTi70ODZdyrwMlFCl6/bczcpOXZFDjf6euDmCWbsbv0hBz6xd6FWpNlIkgdpsehYNc9+uz6Z4Rn1urSOaToMWM+aNojHzRd0cbJG5Ej0/Lx0cBAPc9P8ipDr4U4XXXvGEZj4Hzd0QcJS5t5hUiZkghOnu1DAdALiEJh61IgZUWzUBOCF2PLnvL7JkQKEKpbV5pTWyGNBc5jp87fB86r124gJLEanFqemwqcBDtPD/lqWLBeTix7tylzBVgP0iqUiSlw8rgbz9jl4P3vNI+pOmCX/VZfH8zPKQS1pjKkU8NyjP+U9qZlezd0nBQj13+v23JQJrBrig5gaf5uTIvIwvv9SbdaCT3TWYeuk2NqNXhj4GyR5UsFTh40lbl2OyYEpmJScBrGB6aiy8Q5tcadLNDHAwMQumCdGNVbQnOa8kqyJHDuPHT8Pr8CbSM1BU6ZdPbwwBfDQ+SKQZlUqTF/D08Zf+4pO1mrqyY4aS3QgpN0OPn55+gIfD02Uh++GRshdKl81BiW4KT9k5MqxaPFgZMtnasfZRVnUH78LMoqz2Bl4X7pRp7S3KRGn83hnsk4cOSEjFNMTYiaSnO2ZnAqjU8NzKDe2Zv9OC5SDPFctVIg4tMYOJmOioTpaPJRQZmTFDAZzyrAqQqs7Y44rgpYsB7//eO9wTYL3HVKDLbvK7eB00S33lDNSbBweERgqmGSAKiLDrSerCrchxs3a187aAqcTFefYFXgVCDlkwPp+GVb8V8/ztQXlK2ww6Q52LbniA2cjQxOAaS9G17r5YWXNVcrUiFwhj0tLBOHjp2us1tXoOSwgCtq6t3Yk+C0nzpPjP2q7i2uW1eMaZ8EZ+KKbY8sOIOS1+nXmNkVapcvHzQhaqjm5OSHS6AecSsxKTxbf/cn86Y2bdffDzn5u8XJRNWTMc1JUH49JgLRmZuQtqYYC1dsNRm4Gse9ZaSjaNrA2cjOxlxD94lfJQN9NROlhWGw5wJxfDbXlMTK0kXniNaRbraZwMnl27lZhdi6vwJ20+L0Jh9qPfZaji4J2H6wUq89yedYv0W1JkQEZ2/neNkSo3eZo0uhkXDt+i2xHNB2aXHgVC5z9POjTUwbuMmMHj6Pdbi3LCZjzsnRLdattx8aXMvsQYHS0H+48qx47aiJBLtIrmoM900VBxSCU+v4wcpmXC5fFuwqE21Eo/7lqzex62AlfBJWi1e/6goNNeelq9eRtLQQXwyt7ZRLL6vVRQdkSKQqW/uknPluypT0em8vRGUUSD0QpPRf1ZfJzhV/6aSD1/yV4s4ndO78Dt2c7Fp1RJ45L1AOKtr8tb/pFskzRrXA5P+GmpON/W1Hv+bzhFfawCkqB5t2HEbmmm1IW1GkD4uWFWLmnKVyWah2dsdW2d81CfuOnH7oMWfbXl6YHp6FA+WnZe8715xpKGYDMbVCRK+o7QcrxO/wVI3/IU8vDkxcAxrouYrEyiE4WdFO0dxKfEV4TcotxJeatXXGe62Hp7jEcXmV247pRUVD+JPiyHJvUmEIThq1lxXswXdjImqtEL1s74YRnskoLDkimos8MlScrhLj/Ja9R0XrmQKndg/R4Yqz6KdLrDVB4oz708HB2F16XFZoKKuw1A2gMV01JBmjOvrKdYW0X3OGz1B14arwwgNzOfRYsHwrVhXu13tuKeDeD05XvN7HG36Ja2RfPeuJNNjgtSuAKj2fjbJC9LajP97/OQhPdNHhP350wmMdXfB4Jxc8XvNUBeaTgH61pyemhC3BsZNVZoOT9jgKTtEk0D8ZGIghbokYH5CC/roEzIzKlt2ZxsDJdBz3DXRLwkiflJqwSNzVCHSlYRSvNGjPWVwgmoonGqes2obPh4fqdzsqPthdssyPdXSWa6XVd+3TEJysgB0Hj2OAa9J9kw7y+N3ocAx0jsNI70UYqkuAo3M82g8JwYcD/EU71wecbACL127H58NCqr26ambgdFdzmZ2tHyfyjAHRsBrZckjDq2Vo9psRlilhaki6NMSBron4dkwk2ji4Y4AuEeUnqvRGfZaLG9y02zQoB9YV6Y0NSMOv/ikgjdnpG3G66p5va6ODkxkrbaOtDMPf1EQcsH8/NgJZeTvFE54tx9DOyXSD3YxvDZ4RlYO/aoYIknc3nbR6tvw//+SEL8ZEilODKXAyDe2ujK+C1gDN/8krgdp1UjSKdh0WcFLD0EWt48ToWg2E8U0FbUMyBk5qRC6ZfqjZvqxoUaaGfFLr/bWDiwwz6gNOVjYPp3Cft7yWyxzzIG/cWs0u+dyFqwJWuhyq/PkkD5QRvZUoWz75zsbI9AxfDQuRbdxaDVhacRa9Z8TVGseSHrt3JXNuiBzksQB7j5wS+WqByd9ma07633EZjJVX78DKZkHtXPH1qDDEZW0SN38yoLYGU0PJMKHGYZjLacaM8Jt3ldU479bkbwAM8sYl0rQ1O/Se8JyhCu0aPrTC1/4mj2w80tDs3fDjr1FYvmmvNCIlOLrwTY/KkS5KCzzSYXrKhN/pusfrW+gKJwdF1HhDsdcYIc7G1fu3WaH7yk/LWPf13t56GZCWljf1m5X7p8465G7aqx9zct86Qasa1EvdPRGq2bdOB4uivUfFU4wXgpEG4zINhzi7D5+QrpXd9ACnOLkhjmcNSP0a4UPKWVPWarm6iYMItbSSEydR4YvypOyUh2F5yAPz7z0zrnGcjUsOVcj10M90c6v2eKbXcz3CK7298Y9fwjDGNwVL1u+U7ReqEFWXrsE3cQ3aOvrhGd6i1t1D/BUHuyfKmEhtAVDxOeFgodsPD8OzcplVtYsZgUA/w2fs3fDuwEDQA5+TMXYb7w8Jxt9oq+OSm70bXnJwE7c0AojuaXyKj6KDO17o7iEnhAzxWiDjQeW1pPLnETcrC/eKBzeBRnra9OSfDa3bb3PhE7ccS/J3Y5j3IinXsw7uaNPLG0O8U7BHoy2okbfvOwqniCXiN9mmuzva0H+zhjfFJ7ek8BLWZ+3cZe8/NSe3jfx9VDietK+WHWX4Qk9PzErZUGssxx4qJn0D3uGOyB4eeKGHp4TH7dzE7MTy0ey3cXspRvml4tOhocLzi6RXU0YlY357nqGHB9r9HCCz/4KdZdJYlJz4PFRxFuMC09G2t5fUlbY8PHnlOQd39NIlYM+hSj2otenN0pwcGHPXJK8oqXfILULmht3YVXpcfCINK5uzvZ0HKpCyYss9mjmFcs4St3BoV5vIOJ0V6LTAAbdvwmoMdE0Sc4ndtPkY4ZsipiA6vdKxg1qJG7qoZWKzNiE4abXsbxnutUA8bjpNiZWlVT65l14XvQyxmRuxpnCPGJQNeVWC49hz2/5jCF2YhwFuSej8W6w4zU6NyAbvEFpZtB8Hj56SjWOscI6/EnIKJdCXldug2XAUPT4JUHr15G87iPisTZgZmS13dJK24nN8UDoCElbJ/itulqNGZJfNqwbp3aTqJHn5VpQcPlmLPuNyQkVZpK7ZoQ9Mk7+zTB+X2o8TFYKeDZvX0/R0ihceuk6NlcnVxODFCEpag6TlWyQex5uUlXIkUeVimY6dqkLG6m1wi8mF/bQ4dKGsnOIxMSgds9PzsWHHYdlOo9Jon2aBk5XN1spAc0b9wz2fRG3m6vc9utU0KSAWzLCwKj6fBC0FQmcTbaDNjvyRJuPxST5Jk0Dh1Xza+LV+X+fW19v37QXS5qt+k+71G/fnzzwMtT3Lwu8M5INAUXQMn/yPcUzxKXRuVfugMi3Hi6TPNCynqh9VfmP0tfVGdzm+G8YjXdKqJR+NrEXOsoX6nm3TkIZ6J3+GdcXyUTGZ4pNpzQKnysz2rLtCbDJ6eBnZwGk72fg+rWkpDcsGThs4beC0lNZo4+Phu9vmkqFNc9o0p01zNldrs+VjPZqxrrqyaU6b5rRYzfn/AWoqDAQOC5qsAAAAAElFTkSuQmCC;" parent="1" vertex="1">
          <mxGeometry x="267.37" y="640" width="62.63" height="60" as="geometry" />
        </mxCell>
        <mxCell id="-olVPYCpMihl_OrQ9UhT-18" value="Blueprint Repository" style="shape=image;verticalLabelPosition=bottom;labelBackgroundColor=#ffffff;verticalAlign=top;aspect=fixed;imageAspect=0;image=data:image/png,iVBORw0KGgoAAAANSUhEUgAAAKcAAACgCAYAAABpE3xUAAAgAElEQVR4Ae19Z1iUybbuvnffc86959lh5kzaM04eJ8840Ql79t6TxwyYUcesYxrjmIAm5yRJQUGSShAExBwQUVAxYUZEwSzm7Lj/vfd5F1T70XYLjYRu7B/1fP19XbVq1aq3VlWtWlX1h3//+9+wBZsMLBEDf7BEpmw82RoLMWADp63nsNie0wZOGzht4LR11bau2lwM2DSnTXPaNKe5rcYW36ZpbZrTpjltmtOmCW2a0FwM2DSnTXPaNKe5rcYW36ZpbZrTpjltmtMaNeGd3++i6uJVlJ84h0PHzmBzSTlWFO7Xh4UrtiIqPR9hKRvqHRif6bR0SJf0mQ/zY77WKK/G5vmR1ZwEAMPB8lMo3HMUaauLEZWaB5foXIzwS8VPk+fiX7/OwZfjZqP9qAh88ks4PhwWig+HBOtDu58D8I6jL94yIzA+02npkC7pMx/mx3yZP/kgP+SL/JFP8qt4b2wwWBq9Vg3O23d+x7Ubt3Dl2k1UnK7Chq37kZRbCNeYXPRyikf7EWF4Z0gI3hgYhLf6+eG13t54o7cXXu7ujue66vBMZx2e6XIvPNtVJ9/5H0Obbjo834DAdIoGn6SrzYf58jv5ID/ki/yRT/JLvsk/y8HysFwsH8vJ8rLclga0hvDTqsB55/ffcenqdRw/ewG7Sk9gwapiOM9Zih4z4vDe4GA838cHL/Xywms9PfG8nSue7VINDIKDgGF4wc5Vwot2rmjpoHhRvJFPCV10wj/LwfKwXCwfy8nystwsP+VAeVAuDQFHS6exenD+fvcuLly+jv3lp7GycB+841ai65QYvNrXF884eKCNvRvadHMV4D1Xo+VY6S0NvMbIn+Wg5ma5qgHsKuVluVl+yoHyoFwoH8qJ8mpp0NU3f6sFJ7uusuNnsbroAHzjV6Hr5Bi83MMDzxJ49m54oRsr7uG1IOmwi/1bFx2e6uQi4fGOzvhLByd9+I8fZuJ/fz+jzsB42nSko2iSPvNhfg8D3GrAulbTsXcTeVAulA/lRHlRbtbQ9VsdOO/evYvSijOIy8hHf10i3nD0wxOdXQSID1OpTEtgPNnJBU90dMF//+iE//XdDPy1sw7vDQjAN6Mj4DgjFiPdE+EUngmPubkSotPWI215ITJWFtUZGI/xVVrSIT3SJX3mw/yYL/MnH+TnYQHLsrGhUk6UF+VG+VGOlGd9NVlzx7MacN69+2/cuHkbkWkb4ThtLl7p4YGnOrtId9YQUKqunV3+Yx1d8J8/OeP13l7or0vAhODFmJO2AUvWFmPz7iPYsf8Y9h05ibLj51B55ryYey5euQGGG7fugLzVp+KkDLfuSDqmpdmI9EiX9JkP82O+zJ98kJ+3+3jjv35yFj7JrzSkBg5N2P1TbpQf5Uh5Uq71LUN9ytlYcawCnBwnHTx6GuMDUvFqDw883dmlQV0fASkTim6u+EsXHdr08MBA10REL96IwpJyAcmpcxdx9vxlqbCWsjcyXwKGfJAfgpf8kU/yS77J/7PdqsujGpq5jZRypDwpV8rX0sajVgFOjpF+doqr1pRddWYDk90iK/A5ezc818sbI/1SsWTDbpy/dA2Xr97E9Zu366X5GksjNJQO+SS/5Jv8sxwsD8vF8jW0+6cmpXwp54by1hTpLB6ct+/cQUDCSpnkmKsZ9PG7u6P9kGA4R+diP43YrcQOyHKwPCwXy/did3ezG65eRvZuImfKuymA1hCaFg/OE2cvYKx3ssyW9YKs53jrJXs3fNDfH5NDFmPnwQrcum05gm9IZZlKw3KxfCwny8tymysrWgsoZ8rbVD7N/d3iwXmm6hLGei8wG5zs5t519INb7AocO33eIgf8jVnZnNCwnCwvy23uOLQanAtAeTcmXw9Dq9WCk8bp70eHYV3Rfvz+iDhSsJwsL8vN8pujPW3gbIB7WkM1Jyvn61/CsHRjCW7eso4Jz8NoGaZlOVleltsGzgaAzdwKaCg4OXN9o7c3JoZkoHh/Ba7fvGUx3ZW5MqhPfJaP5WR5WW5zZ+42zdkAMNPO19AJEbVHu/5+GBeULhqF/pKtbVLE8rBc1JgsJ8trrtZk968mRJR3fRpDc8Sx+DHnpSvX8VtQGv7WQPsmK4qa5MdfozA9Mhspq7eLx86V6zctphIaUtHkn55HLA/LxfKxnCyvuVpTwNlVh2mhi0F5N4Sfpkhj8eBkod3mZOPJLuYN8LWTAVZWm67VIP18WCgGuCUhIHkdFi3fIg681BaWtjpiWNnkj3zS4Zh8k3+Wg+UhKFm+hoBSyempLjp4xORaDDBZfqsAJ4X2eKeGLVkq4bPi6PzA8JKDG97s4432gwJhN3UeRvqmQDd3OebnFGJ54T7sKTuJc+cvt2hFMX/yQX7IF/kjn+SXfJN/lkOV6WGASRlRvjZwNmDcGZi4Cs89pCuZAql6sjIZlJvaSw7u+OjnAHw2MgzfTZ4LB5dEDPVNxcyoHISl5CFp+Vbkbt4rk449R07h4LEzsoxIx4+bt80L9FgvP1kF0uEkhnRJn/kwP+bL/MkH+SFf5E/L78OCUclBPSlfytlQY7fku1Vozjnp+eIxpATZmE9VyXxSC3G7xJOdGVxkm8bLDu54q68PPhgYiPbDQ/HVuCh8NX4O/jUhGh2nxqLb9HjYzbgXhnguxLSoHEyPypEn37X/83eX6fPx7eS5Qof0SJf0mQ/z4zYN5k8+yA/50vLZmOVXtOiRFZtdaAOnua0xIbdIKk4JsjmfXGmhmxk1LD2aCBaOzyTUOB8rh2E+GZ/bJ1Tgu/Z//e8aGqRHuqTPfMxd2WksWbzd1weJy7fawGkuOLPyS/DpkGAZ9DdWZTQlHQJMhabMpzFpt/s5CJSzuXXTlPGtoltfs/UQPh8eKtqlMSvERqvacZkz/c+GhYJybkqwmUvbKsBZUnocnSfMsYGznt5Y5jY6Dim+GRuJzbvLbeA0twVVnKqC3eRoGzibEJzdJkWjtMLmbGx267x05QYG6BJls5e5WsEWv+7dnNScdpOicfj4ObPrxlxFY058q+jWWSDuUuRORBvY6gabuTKiXClfc4DTHHGtBpyjPJNs4Gyibp3gHOWRZANnQ1tcUOIq0ZrsgszVDLb4D9a2lKlH3EobOBsKzpiMAtkbQ7OHDWwPBps58qE8uecoOGmNDZwNBSfXn9v28mqxFRRzKtza4nI1y9JWh4gTqxlzbtl7FO/2D7CZkxp53MmVrLa9vbGicJ9NczZUc1acPi97sy11zMlKJm9Pq3X3miff+Z3/W6JGJW/v9g8EFzoaWjdNlc5qNOfNW3fw1S9hFqc5WblPddaBjhOfDAlC+5Gz8M8J0fhuylx58p3f+T/jMb4lgZT8tB8agnMXWtZ/1RjArQacZL7z5BiLqVxuh2DFvtffDz/9Nk9muzwae+O2A9h/9DS4qsUn3/mds2HGY3yma8g+n6YANXn5enS4xWlN1rdVgXOsf6rZhys0doWye2ZXzXEaTxKOztgoR8LQgZhOx4aHf/Gd3/k/j45hfKZjetJp6e6e4Ow5LdYGTmOq25xvPvNXij9lYwOuvvQIJIYvRs6Ce9xK7DxYies3buFuPb37GY/xmY7pSUfRrC8PjR2Puy6nhGbYwGkOEI3FzcjbpfcMb+xKqoseQfRKdw90/W0eUlYVo+rClXqD0rAsBCnTkw7pkS7p18VDU/xPZ+eoRets4DSsJHPfSw6fkCVMdkVNUVGmaCpgdps6D5l5u3Hp6o1GqUzSIT3SbQmActzLLSG5G3c3SnnMrc+64lvVmPPytRt4vINzs0+KCM6vRoQiLrsQVZeumqxInlXE/4+fOY/K0+flyfcHndXE/0mX9Jtbe7KRc12duzzrAkpL/G9V4KSA2vbxblZwEjDvOvpgZlS2HK5q6gx1gnHzjlJEpG7ApFmZGO2fJk++8zv/N1bBpMdDW0mf+TQnQAnOxzo446qFHjBhdeDsPj1OuiJTXXBTfO84PgqrC/caPcqGx8EU7y2XUze+GB2O9wf44/VeXnLmOp9853eeysF4xo7D4TfSZz5Nwb8pmgTnG319jDYaYw2pub9ZHTgnhmZK125K4I35nVqsbS9P2eZ7/qLx7jy/uFRup6CRnUfmyA7Kmq283M7Ld37n/7zFgvGNVTLpczsx82su7fl0Zx16zphvlB9jPDb3N6sD57zsQvA+n8YEoSlaBBZ3ffJGNGPdeUnZSQzxTqmXQ0o10L0kPtMZVjTpMx/ZZWrm2Zqm+K/rO7t0DkEMebGUd6sDZ/6OUvzx++YBJ43k30yMQcnh+8HE2y54HcsHA/zl0IO6gMD/eTgC4zMd0xuCgPkwP+ZbH3oPG4eNPG5p0X18GPLVUu9WB86qS9fwx39NbZbK41p4L/cFRm8721d+GkO9FslVKeo0jrrAwni8WoXpmN6w0nmrGvNjvnXRaoz/2ch5FpMhH5bybnXgvHr9Ft7v798sByxQ0/3in2a08lYX7keHCXPkMC1zgMLDt5iO6Y2BgPkxX3NoNjTuH/85FecvXzPKhzHemvub1YGTJ/jaTZnb4Iuy6luRHCO+5+iLkIXrjVZeysqt+GBggBwlU1+ajMejZ5iO6Y1VNvNjvk09KaIHPG9xs1QzEmVjdeCk2cUrbgX+2sG5SbULwfFWby9wPd8YiAiuTwcHyWzcHHDKJGtwkElwMj/m29TgpBnJYeo8i74gzOrAybvDF63Zgf/TDJMiAmR0gOlu/YdxkXJddn2BxHi8u5LpTHXrzK++9MxpFIZx2bido7LEY8pY47OEb1YHTp7wy9N9/+8305tUc7IyOTHp6ZYMOjobVtau0uMY5LGgQRMipmN6Q5rMh/k1x4SIjXvu4nyjkz1Dvlrq3erASUFxywaN2k29E7MuU1JMen6NKal+s2s6WtCUxHQtbUr6f99MR9HeYxZ93LhVgvNU1SX0mDavyR2PlRF+4ari+7QcG0nZiSoM91kkd04yrmHXqX2X/7u7S3ymM6aNmE9zGOE5bHi9p6c0cmN8WMo3qwTnuQtXMDEoDX9phkkRlxNnzl6Ki0ZMLvQ24lXTXZ0S0MbeXYznhmYgvlMD83/GY3xjXkqkz3yaY/mSk6HOE2bjpAVd62KsQVglOK9dv4nYJQX4z+9nPFBbaTVXQ3/TcP6jTGD2GgUVgbb/6BkM90/Dh8NC8WpPz+qTjDvr5Ml3fuf/jGcMmPxGxw/mU1+DfkPLw3R0k5sYvBhs5MZAYSnfrBKcnLEX7CrDE50e7nqT+lQwu2MeOjAtPAtHT1aZ9H7n/T3rtx6UWy8c3ZLR13Mh+OQtGPxu6n4fesWTLukzn7qGB/Xhua44f/7JCRHpGy3axskGYpXgpKbZfqACXwwLNdsIXlfFGf4v5p+uOnw6KBDhqRtw9nzDt2cYaiQCk/RIl/Q5wWsOMxKHQ8s377XombpVg/PA0dNwdIlvlpPnCBiG78ZFIXHZFlRduGxSgxoC0NR79T6iy0KPdFUeho2jsd/ZAN7p64OiPeVgD2SKP0v4bpWak3eLn666BF10Dv70k1OTjzsJEIKHdwFxXZwArTxzocGahw4eTE861evz7s2iMVmOJzq5wH5KjGxTtvRb66wSnGzVXBOOz9mMxzo27TKmVnMpgH49JhJ+8atk5n3xynWjvp7GNA99NhmfM3amJx25/KoZd16yMf82KwOnzl0CG7kxPi3lm9WCkwcVcNz0vqNvs3nxKA1K89D7/fzgqEtEdEYBCkuO4PjZC0a3YLCi6Q/A/xmP8ZmO6UmHgNc2gKb+/XRXV8zLLMCVa42zg7QpgWy14GTXWFRSDvvJ0U1ujDcGGNoKqfU++DkADjPmQxezDPFZm5CVtxPrtx3C+uJSefKd3/k/4zE+0zG9MbpN+Y0eUV8MC8GaLQdMNqSmBJu5tK0WnBwvHTtVhd9CF8s4qikr1RRtaj1W+Av27njX0VfuqOQW344To9FpUrQ8+c67K/k/40n8ZtaWin/O0od4LpB7O43ZW80FT1PHt1pwUjDsmpKWFaFdf78mNympCjb2JEhpPKeNkk+eFKyC9ntzd+FaXjmEeNPRF9GZBbhgZLWrqYHWEPpWDU62ft6+y2W/F+2rr3fWVojtd/V4lsDkUGJ8QCoOHTttdJWqIeBp6jRWDU4Kh7a6vWUnMcY/Ba/29GrWyZE1gJ/AZOgzMw6bd5UZdf9rapA1lL7Vg1MAeud3lJRWYox/qg2gmvGsAmbvGbHI334I3OLSUKC0RLpWAU4B6O+/y47GqZHZeL2vj9xXzsqxBu3WFDyKNaGHJwa6JWPTrjLcuHX/VuSWAJw5ebYacLLQNHIfPVWF2Wkb8K9fZrXIiXRNATRzaT7eyQWv9vHGzKgcOV3ZGmbmxkDbqsCpCsjT6GhrHBuQhud7eoKV1RyuaOaCqLHj8yDYp7roYDclBotWbMHJsxetqhtX9aeerRKcLJzYQU9WIXlZEXrPnI8Xe3jKmUUEaUuadBobkCyLDF8c3PHTr1GYk56PQxVnG7zur4BhCc9WC04l3Os3b+PoiWqQ2k+Pwyu9vfG3bvcO3GpssDQHPWU75bjyeQd3fD0qDOEL14GH63LtXpXd2p+tCpw0Kxk7YpCVxO9nqi5hzeY9so+n7YBAvCLOva54rovl3G5hCtwEJMHILR8vOLjj+T4+6DwpGkm5hSg/cQ7Xbxif8HAidO3GLYt3jzPWkFoVOLkrc8P2Uhw7fd7o7kYKgLdbsMIqz5xHZEoeuv02D2/1C5AZPs8xYjepnH75WxtMAaeh30lbm1abF3+TD+7YfLm7O97s64O2AwLw4chwOEXlyE4AlsPw9g5VydzdSTlk5ZcgZ+Mei9+SofjWPlsVOHccqEDfmXFg9526bieOnKwSrWHs+EKtEDjDX7hiK8YHpsNu6jx8MyZCbouj59AbvasPguUKC1ehuCxJ4FTbEKvBQwCpoMa0tYAmhvB7carj3msELzu4CwB5PEzbnp5yHA1PE/nHL2H4cUI0hvumYHZGAXYcrHxgl81yUkuy3Cy/3bRYfDAgALFZhbh01fq6+1YFTm4Z5p6dp7vq8Ky9O/q5JcnpILz/h7sb6clED3QtMA1/8yqW3YeOIzNvFyJT86CLzsWogDRxc7ObFocffp2Nf46chfaDgwREb/f1hgpv9vHGm729jAYVh0+ehdR+UKCcA//t6HB0mTIXfXWJ+MU/FVPDsxC2cB1SVxVj064j4Kl6D2pcLA/LRfBxIpSyZgccXZOk/PR1/XZMBAp2lj2wzIYysJT3VgVOVtKi1dvxXr/qW9J4cu/rfbzRX5eAORkF2Lz7CE5VXQR3bz6owrWVQ4dcbk4rrTgrmmvt1oNYsn4nFizfgjlpeQhfsFYfvOevxMzIbMyIyKoVnCKz9XEYf3bKeiQtLRQ63HVZuPsIuO2k6uJV3LlTv60ToiWv38SZqsvYtr8Cc7MLMchroRyjTdOZ2ig31Guh0eMWtWW01N+tCpwUcv6Ow/ju1yi9jye7X4KU6+5dp8TAde4yZKzfiQPlJ3H2/OVG3YHImTK329YOl2UTW2MBgDsAyPfB8pPI2bBLri3s6ZIoFzkQlGpVjMMK7uYMWrDearyQDGXU6sDJ8SP3iHOvjHayoUDK8R7Hcv3dEhGYtBZLN+ySiubkwZwtF4aCbKp3akjyxQMQCEjyS74HuCfiu9HhaGPnhsc73gOlKjMnUx8O8EfGup1W44VkKMNWB07OYH2S1sq4k9pDVZb2SZPMYx1d8I6jL34YG4EhHklwjl4mZpm8bQexq/QEDh8/JxqquZ0lmB8PdGVj2X34JMgPzUVusSuET45RyTf5p+Oy0pTa8vE3b2b7aXwUNu08bJXjTQK11YGThUpfu0O2Q7DyDCtN+86KZRwGTmb+MTwE3/8ahYHuyfgtPAshyWvlHM01hfvEeYJgKT9RJTs/L1+72WCNxLVupucOUtIjXW56W7flgOTHy1td5y3HYI8Fws+XQ4OFP/LJE+hMAVJbtv/p5IJhfqlyYIOhRrKW91YJzpLSE3Bwir+va9dWnuFvVji7fGqcF+3cBAzsFr8YGozvx0bIQatDvBZiSngWPGJXIDh5HeYt2Yz4pYUS0lcXI7dgD3I3770/FOwB/1dxmY7pSYf0SLfnjDj8+GuU5PfxwEDZ1kGzFfkhKMmbIc+m3tlj8HoZ3+R1VumNpBpPqwQnHT+mzc7VT4pMVaKp79VArQYrhwAcvzEujfRv9PbGO44+Yg56v78f2g3wlz1CXw4LxtejI8RGSjupNvA7/+deIsZnOpqTSIf0SJf0mQ/zY1C2UFM8Pug7gfnJoEAsydtltV06AdoqwUnb38KV2/Dhz+af2W6s0g0N6mJor9kzpFZx1LcHPQk4xld7jfRxNStRxvI39xu7dHuneOw+fMIGTqWGLem5bf8x/DRlLp7oXHvWbm5FW2N8DgOcYpaBN49YUp2Yy0ur1JwUAs0vM+bk4iXeZf4IecQTmJ8MDpJJoblgsLT4rRac9EJavG4HPhseIhMKa9SA5vLMRsjZfC+XBOw3cgmXpYGvLn5aLTi57Hjk+Fn0d000a6ZrLiAsKT7B+VYfbwQkrRUHkLoq39L/b7XgpOA55pqXsVFmx+zuLAlITcHLk511+Oe4SBRsP9RgG6wlAbZVg5Oz9n1HTokNUWbIJlaMmgIozU2Tje/tfn6YlZKHqkvGr9+2JODVh5dWDU4KgP6NKTQrDQoU+2Fzg6Y58qOJit7xI3xSUFZ51qpn6FrQtnpwsrAnqy7BZ94yvNbbq1UBlPZXriD9zc4Ngz0XitudtnKt/fcjAU4B6LmLcJu7DC/08cazVr4Dk6CUVSQ7V7wzwF+8lOhGZ+1gNOT/kQGnKnjeln3o65KAtx195XArrthYix1U+LR3xXPdXNGuvz+Gei/C5pLyVgdKVVePHDhZcHqcz8sulK0XHw7ww0vd3cF9PFxTV0uVzTFWrCsP4aWGJ+5h4ka39kOCMdBjAZYW7DG5uU1VrrU/H0lwqkrjpQEJOZsxOTQT346Nwrv9/PB6Ly+8YO8m699qhk+Q1AWkxvif+bCBMF9222ww3PDG+zJ7OcXDJXKJ7C2y9mVJJf+6no80OJVwOF5btakE87M3Y0JIBjpMnouPBwfjLfEa8hKQ8CpqHvdCk41y3rjPgYNarh6B6UiDtEiTe9Gft3MTIHIL8Dv9/eR47D7OCXCOWIL47M3YfqASV67dbLVduKoL7dMGTs1uTB7KwG0evDI7a8NuhC1cj0mhmdL9/zgxGp+OCMXHQ4Lx4cAAvN/PVzbS8fZi7tXhtt66gtr2yyO43+vvj3YDA/DR0GB8MmIWOkyZh5G+KTJpi8vaLI1l58FKcUi21oO4tEBryG8bODXg1AqQgLh45YacO8916t2HKpG39QAy1+1AQvZmzEpeg+DktXCNWYZfgxZjtH9anYFa2Xf+SgQlrkZE6gYkLi3E8o27UbizVOiXHT8nu0O5ia2+u0O1PLe23zZwmgCnsYqW00Ju3sblqzdkUlV14YpszT1+5jwqT9cdTpy9AKaRcPGq0Ll1u35bgY3x09q/2cBpBjhbOxgsrXw2cNrAabGTLBs4beC0gdPSugwbPw8+M8oS5GPTnDbNadOcltASbTxYvrbU1pFNc9o0p01zaluE7bd1abCWqi+L0Jw3b92RQ1K5xq1CY62S8MzO85eu6emS/qWrN1rNCoxayVJy45PlpUxbClSNla9Z4GSh87aXInHZFsRnFz4w8BDXVUUHsHFnGfYfOWVyNyCFuGbLQbhEZeO30AxMCU7H5IAUzM3cBJ5U/DDLeDdu3UHetkNwj84Rmr/NysS4gDS4x+TKCk9jCbGl6BCYR05UITBxlZSPspsYkoFpYUuwofjQowXOkkOVGOSWKEfw8byfBwWeCcTjYD4ZFITvx0VhmEcyFiwvuu/gfG7G8ktcK+5qr3R3x6vd3fGCnRsG6RKw61BlvU/6NQYQNqbQhevBg7FIu21PDzxv74b3BwTKuel1HcFtjKYlfePe/PztpfhmVJicV8/y0efz1R6eCEvNf7TAufPAMdhPm1dzElv9fRzpbkY/RZ4rSUeJytNVesHx7m86ULzv6FvLl3GQayLolcNuWQsIbljjGjWPqV637RCSV25D0d5jRjUzT/0IXrAOH/T313u701Wt3YAA0TitAZzsGf4+LERfJ5Tzyz08MSt1Yy25aWXYXL+V48yBo2fkRr2U1dtx6OjpevNlVrdOcPacHnvfJjFWOJ1j63K4pa8jD/qP1VxIT6/0gMQ1cuIafRtJh8dk93OKA2/HMATnpKA0qYg/fDcDDE/Yu8sdjyeMXKX3qIDzq+Eh+jPgCc5XCM60lgXntr1HBSs8YVrV1ZMOHnLgQ30bR6OA8/VentJlcm+LHF5g71btSGsAWILzle4e6O+WhOIDFdKCCKDojALxRG8/NASfDwvFx4NDMC44A6WV5+SaQG1hPhoYpG8I3BJL51zv+FUy4dHG428bOFvOKsC5Bv1cldKig3Xbvj6IzSlsXs053CMRUSl58I5dBo+YXAnuMUsxyjMZ7QYGidc3tSq3IZDJjhPmYH1xqZxKwTsqy09WgbdUaA9e3X6gQi4TMOx6vxw5S19gGzirJ3yWqDkJzo8G3VMkLQbO+UuLjN5Kcfb8VUyLzK7V3VN78m6c5Zv21LoKkLNyAlXC73fBs46UJiRAFUjrAifTqbSmNOcHPwdIgyBNznhv37kjN77xDiLelcmhxIOsBPxP8qm5Rlvlp/g1fEp8iVt97bbh/4bvjE8eeL49z4gnX7yRjRMgXgWjZMF3jjnNAaeSL8utgmH+6p18MA/FA5+0rnDHgOJBxdU++Z8pcMbVaM7qerqrr2NtevW7Ubp1Zki7pCKqnjdv3xE1rjQmtSfHp1+OCEXG2h0CBAqAdsejp87LJIXe4Icrz+HM+StSQRQgnXN5m8TZqsv4bFhorXk4/7EAABKySURBVPHVG3284TxnKQ6Un5ItDcfPXJC4rFBT4Gw/LEQulKq6eAVllefkPPbsvF1YuKpYLscq2nMUx89euG+SRV6vXL8Jjm/pXEyeKk7xealWQ1PlZyWxbIxLvnilIeNznG04lmaam7duy2VeR09WoXh/hTRgTiLIF/nbuOOwWDCYvwJrfcFJUFIeND1RviocPHbmvr1J5I1xyUfhrjK5kYOmwcXrdsq59Tzi58z5yyIf0lXlpcwpE4alG0vk9jjWt9R7Nx3ecPRBdHp+jYP2BVScqhLrDRuAoqF9Ngo4Z2dskgP4tYT5m5lSq2onShyTfjQoUC6Zopbi7HtpwV5MmrUEo/1SMM6/OsRkbpJCVF28hrnpG0Ab5dSwTLzR11dPj6DnGPaHcZGYEJQm/08KXgznyCwU7jqMi1euGZ2tfzwoEFGLC+AfvxLjAlLQfVqsaB+av2iW6escj+kRS7BkQ0mtO3zIK+85cp2bK3xODlmM8YFpcJqTK7dfGGpQajnuRSLfUq6AFEwMTq+x4d67C52g5w0aNAtFLFqH8cHp6OMcj29HhUsFc78RtSP5HOyaiAnB6dhSUi7yrS84aRUhuMaHZGBMjYzJUz9dggyxWF/knxeCbdl7TC4VI6+9ps/DZ9w39XMAPh8agg7jZ2OIexLcY5cjK3+3NDp1sRcv+5ocmiF19bPLfP1x4mpIx7kJJ9SUB2VHPmYtXCcXyxpih+9NDs7E5VsFTAQSmeQAmZorbXWxtH7aOX0TV8tsnf+pQFPSwaNn5MqVIR7JMsHikEALdO1v/sdA8PO8dS4UsMINTUkcp3LL7YcDA/FmX1/JT3ZD1lxzLb/Z2u3d8d24KMTnbgHPmKewWMFx2YXgxI18Mj9qhjcd/bB1f+V9J7uxcfrErZRKIl3OpDlJGOmXCppXBBA1++gXrS5GrxlxeNfRRz82v4+vml2bT3R1RfLyLbXASX4oD2OzdQ5bikqOYIAuQQ6SUDKmVaRNLy9s3Xdvcso9Ur2m885M/5pdp9XHhGt5YR68dOybMZEITFojGpY9HHl6vrtHnUdOUm6kwfwdps0DrUDNDk6OmcJS8oQRgoLCI0h/GBeF1YX7pWtjhfNKFdo5WdEUAoVnCE4ewk9TEwumBaWiybRMx7ODaE+NX1qE85eu3gfO6gq8dy470zAt6SraahjyvJ0rOk2KkfGTAmd8TiE+GxqCZ7vc45WabVsd4BSaXXX3gZPDoWUFJegxbZ70AqoRqzIqvvRPO1f8uaurXJVI8Cs7J2VTXbbapiRqQw5RXGNypdEq+izz011dEZi0ToBBWquL9qPj+CipA3191dwyQjmx4fM7g6on7kKdvXijNNxFq4rxbHcPkY3iV5VDPQlKJXPy3GN6M4GT3RPHhxzH7C07iYIdh+HoPF/fkiiYV7t7YIBrIrbuOyaTDi04FThYcAVOjnvG+qXglV5eshWXBx6oeCwwf79kz+AmhyEQUNSKSSu2mgSnEhyFTHq8HZiagisrSoh88n/eoxmRli9airwm5xbi78OrNSfjkNf6gFN4rbnyT6s5Dx07I13hW328pOFKvJoGyDLxpmIps3rauYptlwsRCpwPmhBRQSzJL8FXv4Tp64F5sHH1dE7A+cvVtwnzOvBffFPweEdnvQxECzu4o10/P3w8OEjkyjG+8FSjpZ/s7IJOE+fI3aDpa7bjVUdfcLs073UyrCvSIwZecvCQ/3j7XB+XBNl52uSa88q1G0hbuRX9PBfKXu9OE2bLsiGFwfCygxu+GRuJpGVbBMRKGynNqUCnwEmAExBZ63cgeFEe5mVtliVTtjxViVyu6zwpGtMic+TGYN4aHLIoT26SMDYhYh4E3VcjQjHIIxnTo5YKXY5xJ4ZmynEvig8+X+vphSkR2TLZamxwsivMLz6ErpOj9cBhnly+/WJYMMYFLYYuZrm+XBzbjvJLwVDfFLkl2BQ42eWGpxfIGJLgH+y1UJY1tVqT426usMmM/e5dmcBwwkLQUrYCzB4e6OM0H3MWb0TKqmIsWLFVJp9fDg/VA5h1xaHK0k175ea70JQNCE/ZgN8isuQ8KlVXpMfz+Tmed4tbVVOmFUhcUSynADY5OHkjmVN4Jv7UwRlsUWKQ1xzlwnt3XObkyOxWMfMgzamWL7UzQmOmJJ/41Xqwa00UxsDJ7oxHziTmFklr56SMvFDrlx2vEkCIRtW3cncM8Voks/vGBicnWIvXFOOfI0KlqyMoWNm8r8gvYZVYBciXkhXBePLcBTn4gd9MgZPl44SP9BNyi+QCAwUSAb+Dh0ziLtRoTc7O/RNX468dnPSgYzxaVbLzS8R0pHjgUeac0PDqbtGE3VzlMjL32BW1Jo/GTEkEf9KyaiM864kNQ1s+lYd6NuqESIGTx6tQ0IaBd41PDsnArkPHce1GtempPuBUzPJpDJzmrhB9PCgIPCdJS5e/qfn9E1YJ36wc8k9tP8AtWa6FbmxwsvEk5hTi70ODZdyrwMlFCl6/bczcpOXZFDjf6euDmCWbsbv0hBz6xd6FWpNlIkgdpsehYNc9+uz6Z4Rn1urSOaToMWM+aNojHzRd0cbJG5Ej0/Lx0cBAPc9P8ipDr4U4XXXvGEZj4Hzd0QcJS5t5hUiZkghOnu1DAdALiEJh61IgZUWzUBOCF2PLnvL7JkQKEKpbV5pTWyGNBc5jp87fB86r124gJLEanFqemwqcBDtPD/lqWLBeTix7tylzBVgP0iqUiSlw8rgbz9jl4P3vNI+pOmCX/VZfH8zPKQS1pjKkU8NyjP+U9qZlezd0nBQj13+v23JQJrBrig5gaf5uTIvIwvv9SbdaCT3TWYeuk2NqNXhj4GyR5UsFTh40lbl2OyYEpmJScBrGB6aiy8Q5tcadLNDHAwMQumCdGNVbQnOa8kqyJHDuPHT8Pr8CbSM1BU6ZdPbwwBfDQ+SKQZlUqTF/D08Zf+4pO1mrqyY4aS3QgpN0OPn55+gIfD02Uh++GRshdKl81BiW4KT9k5MqxaPFgZMtnasfZRVnUH78LMoqz2Bl4X7pRp7S3KRGn83hnsk4cOSEjFNMTYiaSnO2ZnAqjU8NzKDe2Zv9OC5SDPFctVIg4tMYOJmOioTpaPJRQZmTFDAZzyrAqQqs7Y44rgpYsB7//eO9wTYL3HVKDLbvK7eB00S33lDNSbBweERgqmGSAKiLDrSerCrchxs3a187aAqcTFefYFXgVCDlkwPp+GVb8V8/ztQXlK2ww6Q52LbniA2cjQxOAaS9G17r5YWXNVcrUiFwhj0tLBOHjp2us1tXoOSwgCtq6t3Yk+C0nzpPjP2q7i2uW1eMaZ8EZ+KKbY8sOIOS1+nXmNkVapcvHzQhaqjm5OSHS6AecSsxKTxbf/cn86Y2bdffDzn5u8XJRNWTMc1JUH49JgLRmZuQtqYYC1dsNRm4Gse9ZaSjaNrA2cjOxlxD94lfJQN9NROlhWGw5wJxfDbXlMTK0kXniNaRbraZwMnl27lZhdi6vwJ20+L0Jh9qPfZaji4J2H6wUq89yedYv0W1JkQEZ2/neNkSo3eZo0uhkXDt+i2xHNB2aXHgVC5z9POjTUwbuMmMHj6Pdbi3LCZjzsnRLdattx8aXMvsQYHS0H+48qx47aiJBLtIrmoM900VBxSCU+v4wcpmXC5fFuwqE21Eo/7lqzex62AlfBJWi1e/6goNNeelq9eRtLQQXwyt7ZRLL6vVRQdkSKQqW/uknPluypT0em8vRGUUSD0QpPRf1ZfJzhV/6aSD1/yV4s4ndO78Dt2c7Fp1RJ45L1AOKtr8tb/pFskzRrXA5P+GmpON/W1Hv+bzhFfawCkqB5t2HEbmmm1IW1GkD4uWFWLmnKVyWah2dsdW2d81CfuOnH7oMWfbXl6YHp6FA+WnZe8715xpKGYDMbVCRK+o7QcrxO/wVI3/IU8vDkxcAxrouYrEyiE4WdFO0dxKfEV4TcotxJeatXXGe62Hp7jEcXmV247pRUVD+JPiyHJvUmEIThq1lxXswXdjImqtEL1s74YRnskoLDkimos8MlScrhLj/Ja9R0XrmQKndg/R4Yqz6KdLrDVB4oz708HB2F16XFZoKKuw1A2gMV01JBmjOvrKdYW0X3OGz1B14arwwgNzOfRYsHwrVhXu13tuKeDeD05XvN7HG36Ja2RfPeuJNNjgtSuAKj2fjbJC9LajP97/OQhPdNHhP350wmMdXfB4Jxc8XvNUBeaTgH61pyemhC3BsZNVZoOT9jgKTtEk0D8ZGIghbokYH5CC/roEzIzKlt2ZxsDJdBz3DXRLwkiflJqwSNzVCHSlYRSvNGjPWVwgmoonGqes2obPh4fqdzsqPthdssyPdXSWa6XVd+3TEJysgB0Hj2OAa9J9kw7y+N3ocAx0jsNI70UYqkuAo3M82g8JwYcD/EU71wecbACL127H58NCqr26ambgdFdzmZ2tHyfyjAHRsBrZckjDq2Vo9psRlilhaki6NMSBron4dkwk2ji4Y4AuEeUnqvRGfZaLG9y02zQoB9YV6Y0NSMOv/ikgjdnpG3G66p5va6ODkxkrbaOtDMPf1EQcsH8/NgJZeTvFE54tx9DOyXSD3YxvDZ4RlYO/aoYIknc3nbR6tvw//+SEL8ZEilODKXAyDe2ujK+C1gDN/8krgdp1UjSKdh0WcFLD0EWt48ToWg2E8U0FbUMyBk5qRC6ZfqjZvqxoUaaGfFLr/bWDiwwz6gNOVjYPp3Cft7yWyxzzIG/cWs0u+dyFqwJWuhyq/PkkD5QRvZUoWz75zsbI9AxfDQuRbdxaDVhacRa9Z8TVGseSHrt3JXNuiBzksQB7j5wS+WqByd9ma07633EZjJVX78DKZkHtXPH1qDDEZW0SN38yoLYGU0PJMKHGYZjLacaM8Jt3ldU479bkbwAM8sYl0rQ1O/Se8JyhCu0aPrTC1/4mj2w80tDs3fDjr1FYvmmvNCIlOLrwTY/KkS5KCzzSYXrKhN/pusfrW+gKJwdF1HhDsdcYIc7G1fu3WaH7yk/LWPf13t56GZCWljf1m5X7p8465G7aqx9zct86Qasa1EvdPRGq2bdOB4uivUfFU4wXgpEG4zINhzi7D5+QrpXd9ACnOLkhjmcNSP0a4UPKWVPWarm6iYMItbSSEydR4YvypOyUh2F5yAPz7z0zrnGcjUsOVcj10M90c6v2eKbXcz3CK7298Y9fwjDGNwVL1u+U7ReqEFWXrsE3cQ3aOvrhGd6i1t1D/BUHuyfKmEhtAVDxOeFgodsPD8OzcplVtYsZgUA/w2fs3fDuwEDQA5+TMXYb7w8Jxt9oq+OSm70bXnJwE7c0AojuaXyKj6KDO17o7iEnhAzxWiDjQeW1pPLnETcrC/eKBzeBRnra9OSfDa3bb3PhE7ccS/J3Y5j3IinXsw7uaNPLG0O8U7BHoy2okbfvOwqniCXiN9mmuzva0H+zhjfFJ7ek8BLWZ+3cZe8/NSe3jfx9VDietK+WHWX4Qk9PzErZUGssxx4qJn0D3uGOyB4eeKGHp4TH7dzE7MTy0ey3cXspRvml4tOhocLzi6RXU0YlY357nqGHB9r9HCCz/4KdZdJYlJz4PFRxFuMC09G2t5fUlbY8PHnlOQd39NIlYM+hSj2otenN0pwcGHPXJK8oqXfILULmht3YVXpcfCINK5uzvZ0HKpCyYss9mjmFcs4St3BoV5vIOJ0V6LTAAbdvwmoMdE0Sc4ndtPkY4ZsipiA6vdKxg1qJG7qoZWKzNiE4abXsbxnutUA8bjpNiZWlVT65l14XvQyxmRuxpnCPGJQNeVWC49hz2/5jCF2YhwFuSej8W6w4zU6NyAbvEFpZtB8Hj56SjWOscI6/EnIKJdCXldug2XAUPT4JUHr15G87iPisTZgZmS13dJK24nN8UDoCElbJ/itulqNGZJfNqwbp3aTqJHn5VpQcPlmLPuNyQkVZpK7ZoQ9Mk7+zTB+X2o8TFYKeDZvX0/R0ihceuk6NlcnVxODFCEpag6TlWyQex5uUlXIkUeVimY6dqkLG6m1wi8mF/bQ4dKGsnOIxMSgds9PzsWHHYdlOo9Jon2aBk5XN1spAc0b9wz2fRG3m6vc9utU0KSAWzLCwKj6fBC0FQmcTbaDNjvyRJuPxST5Jk0Dh1Xza+LV+X+fW19v37QXS5qt+k+71G/fnzzwMtT3Lwu8M5INAUXQMn/yPcUzxKXRuVfugMi3Hi6TPNCynqh9VfmP0tfVGdzm+G8YjXdKqJR+NrEXOsoX6nm3TkIZ6J3+GdcXyUTGZ4pNpzQKnysz2rLtCbDJ6eBnZwGk72fg+rWkpDcsGThs4beC0lNZo4+Phu9vmkqFNc9o0p01zNldrs+VjPZqxrrqyaU6b5rRYzfn/AWoqDAQOC5qsAAAAAElFTkSuQmCC;" parent="1" vertex="1">
          <mxGeometry x="448.5" y="460" width="62.63" height="60" as="geometry" />
        </mxCell>
        <mxCell id="-olVPYCpMihl_OrQ9UhT-19" value="Client Data Blueprint" style="swimlane;fillColor=#dae8fc;strokeColor=#6c8ebf;rounded=1;" parent="1" vertex="1">
          <mxGeometry x="240" y="440" width="130" height="100" as="geometry" />
        </mxCell>
        <mxCell id="-olVPYCpMihl_OrQ9UhT-20" value="Funky Design File(s)&lt;br&gt;(*.fky)" style="verticalLabelPosition=bottom;html=1;verticalAlign=top;align=center;strokeColor=none;fillColor=#00BEF2;shape=mxgraph.azure.code_file;pointerEvents=1;" parent="-olVPYCpMihl_OrQ9UhT-19" vertex="1">
          <mxGeometry x="50" y="30" width="30" height="32" as="geometry" />
        </mxCell>
        <mxCell id="-olVPYCpMihl_OrQ9UhT-21" style="edgeStyle=orthogonalEdgeStyle;rounded=0;orthogonalLoop=1;jettySize=auto;html=1;entryX=0;entryY=0.5;entryDx=0;entryDy=0;entryPerimeter=0;" parent="1" source="-olVPYCpMihl_OrQ9UhT-8" target="-olVPYCpMihl_OrQ9UhT-19" edge="1">
          <mxGeometry relative="1" as="geometry">
            <mxPoint x="70" y="490" as="sourcePoint" />
            <mxPoint x="260" y="490" as="targetPoint" />
          </mxGeometry>
        </mxCell>
        <mxCell id="-olVPYCpMihl_OrQ9UhT-22" value="Client Data Blueprint" style="swimlane;fillColor=#dae8fc;strokeColor=#6c8ebf;rounded=1;" parent="1" vertex="1">
          <mxGeometry x="308.5" y="730" width="140" height="100" as="geometry" />
        </mxCell>
        <mxCell id="-olVPYCpMihl_OrQ9UhT-23" value="Funky Design File(s)&lt;br&gt;(*.fky)" style="verticalLabelPosition=bottom;html=1;verticalAlign=top;align=center;strokeColor=none;fillColor=#00BEF2;shape=mxgraph.azure.code_file;pointerEvents=1;" parent="-olVPYCpMihl_OrQ9UhT-22" vertex="1">
          <mxGeometry x="50" y="30" width="30" height="32" as="geometry" />
        </mxCell>
        <mxCell id="-olVPYCpMihl_OrQ9UhT-24" value="" style="edgeStyle=orthogonalEdgeStyle;rounded=0;orthogonalLoop=1;jettySize=auto;html=1;entryX=0;entryY=0.5;entryDx=0;entryDy=0;" parent="1" source="-olVPYCpMihl_OrQ9UhT-25" target="-olVPYCpMihl_OrQ9UhT-28" edge="1">
          <mxGeometry relative="1" as="geometry">
            <mxPoint x="680" y="890" as="targetPoint" />
          </mxGeometry>
        </mxCell>
        <mxCell id="-olVPYCpMihl_OrQ9UhT-25" value="CMS" style="rounded=0;whiteSpace=wrap;html=1;" parent="1" vertex="1">
          <mxGeometry x="460" y="860" width="120" height="60" as="geometry" />
        </mxCell>
        <mxCell id="-olVPYCpMihl_OrQ9UhT-28" value="Client Data" style="whiteSpace=wrap;html=1;rounded=0;" parent="1" vertex="1">
          <mxGeometry x="780" y="860" width="120" height="60" as="geometry" />
        </mxCell>
        <mxCell id="-olVPYCpMihl_OrQ9UhT-29" value="Funky Design File(s)&lt;br&gt;(*.fky)" style="verticalLabelPosition=bottom;html=1;verticalAlign=top;align=center;strokeColor=none;fillColor=#00BEF2;shape=mxgraph.azure.code_file;pointerEvents=1;" parent="1" vertex="1">
          <mxGeometry x="650" y="850" width="30" height="32" as="geometry" />
        </mxCell>
        <mxCell id="-olVPYCpMihl_OrQ9UhT-38" style="edgeStyle=orthogonalEdgeStyle;rounded=0;orthogonalLoop=1;jettySize=auto;html=1;exitX=0;exitY=0.5;exitDx=0;exitDy=0;" parent="1" source="-olVPYCpMihl_OrQ9UhT-70" target="-olVPYCpMihl_OrQ9UhT-37" edge="1">
          <mxGeometry relative="1" as="geometry">
            <mxPoint x="270" y="1430" as="sourcePoint" />
            <Array as="points">
              <mxPoint x="120" y="1110" />
              <mxPoint x="120" y="1110" />
            </Array>
          </mxGeometry>
        </mxCell>
        <mxCell id="-olVPYCpMihl_OrQ9UhT-39" value="download *.dat file" style="edgeLabel;html=1;align=center;verticalAlign=middle;resizable=0;points=[];" parent="-olVPYCpMihl_OrQ9UhT-38" vertex="1" connectable="0">
          <mxGeometry x="-0.1771" y="2" relative="1" as="geometry">
            <mxPoint x="-37" y="-12" as="offset" />
          </mxGeometry>
        </mxCell>
        <mxCell id="-olVPYCpMihl_OrQ9UhT-49" style="edgeStyle=orthogonalEdgeStyle;rounded=0;orthogonalLoop=1;jettySize=auto;html=1;exitX=1;exitY=0.5;exitDx=0;exitDy=0;" parent="1" source="-olVPYCpMihl_OrQ9UhT-70" target="-olVPYCpMihl_OrQ9UhT-35" edge="1">
          <mxGeometry relative="1" as="geometry">
            <mxPoint x="390" y="1120" as="sourcePoint" />
            <mxPoint x="610" y="1110" as="targetPoint" />
          </mxGeometry>
        </mxCell>
        <mxCell id="-olVPYCpMihl_OrQ9UhT-35" value="" style="outlineConnect=0;fontColor=#232F3E;gradientColor=none;fillColor=#3334B9;strokeColor=none;dashed=0;verticalLabelPosition=bottom;verticalAlign=top;align=center;html=1;fontSize=12;fontStyle=0;aspect=fixed;pointerEvents=1;shape=mxgraph.aws4.rds_sql_server_instance_alt;" parent="1" vertex="1">
          <mxGeometry x="620" y="1071" width="78" height="78" as="geometry" />
        </mxCell>
        <mxCell id="-olVPYCpMihl_OrQ9UhT-37" value="" style="shape=image;html=1;verticalAlign=top;verticalLabelPosition=bottom;labelBackgroundColor=#ffffff;imageAspect=0;aspect=fixed;image=https://cdn2.iconfinder.com/data/icons/whcompare-blue-green-web-hosting-1/455/sftp-128.png" parent="1" vertex="1">
          <mxGeometry x="15" y="1080" width="80" height="80" as="geometry" />
        </mxCell>
        <mxCell id="-olVPYCpMihl_OrQ9UhT-40" style="edgeStyle=orthogonalEdgeStyle;rounded=0;orthogonalLoop=1;jettySize=auto;html=1;exitX=0.5;exitY=1;exitDx=0;exitDy=0;exitPerimeter=0;" parent="1" edge="1">
          <mxGeometry relative="1" as="geometry">
            <mxPoint x="415" y="1192" as="sourcePoint" />
            <mxPoint x="415" y="1192" as="targetPoint" />
          </mxGeometry>
        </mxCell>
        <mxCell id="-olVPYCpMihl_OrQ9UhT-41" value="" style="shape=image;html=1;verticalAlign=top;verticalLabelPosition=bottom;labelBackgroundColor=#ffffff;imageAspect=0;aspect=fixed;image=https://cdn3.iconfinder.com/data/icons/file-extension-vol-1/48/Dat_file_database_extension_data-128.png" parent="1" vertex="1">
          <mxGeometry x="160" y="1112" width="48" height="48" as="geometry" />
        </mxCell>
        <mxCell id="-olVPYCpMihl_OrQ9UhT-53" style="edgeStyle=orthogonalEdgeStyle;rounded=0;orthogonalLoop=1;jettySize=auto;html=1;entryX=0;entryY=0.25;entryDx=0;entryDy=0;" parent="1" source="-olVPYCpMihl_OrQ9UhT-51" target="-olVPYCpMihl_OrQ9UhT-37" edge="1">
          <mxGeometry relative="1" as="geometry" />
        </mxCell>
        <mxCell id="-olVPYCpMihl_OrQ9UhT-51" value="Actor" style="shape=umlActor;verticalLabelPosition=bottom;verticalAlign=top;html=1;outlineConnect=0;" parent="1" vertex="1">
          <mxGeometry x="-170" y="1070" width="30" height="60" as="geometry" />
        </mxCell>
        <mxCell id="-olVPYCpMihl_OrQ9UhT-54" value="" style="shape=image;html=1;verticalAlign=top;verticalLabelPosition=bottom;labelBackgroundColor=#ffffff;imageAspect=0;aspect=fixed;image=https://cdn3.iconfinder.com/data/icons/file-extension-vol-1/48/Dat_file_database_extension_data-128.png" parent="1" vertex="1">
          <mxGeometry x="-100" y="1102" width="48" height="48" as="geometry" />
        </mxCell>
        <mxCell id="-olVPYCpMihl_OrQ9UhT-58" value="Client Data" style="swimlane;fontColor=#000000;" parent="1" vertex="1">
          <mxGeometry x="250" y="1040" width="280" height="340" as="geometry" />
        </mxCell>
        <mxCell id="-olVPYCpMihl_OrQ9UhT-76" value="" style="group" parent="-olVPYCpMihl_OrQ9UhT-58" vertex="1" connectable="0">
          <mxGeometry x="50" y="40" width="180" height="270" as="geometry" />
        </mxCell>
        <mxCell id="-olVPYCpMihl_OrQ9UhT-70" value="Import Data&lt;br&gt;Scheduler" style="rounded=0;whiteSpace=wrap;html=1;" parent="-olVPYCpMihl_OrQ9UhT-76" vertex="1">
          <mxGeometry x="20" width="120" height="60" as="geometry" />
        </mxCell>
        <mxCell id="-olVPYCpMihl_OrQ9UhT-71" value="Funky Design File(s)&lt;br&gt;(*.fky)" style="verticalLabelPosition=bottom;html=1;verticalAlign=top;align=center;strokeColor=none;fillColor=#00BEF2;shape=mxgraph.azure.code_file;pointerEvents=1;" parent="-olVPYCpMihl_OrQ9UhT-76" vertex="1">
          <mxGeometry x="150" y="70" width="30" height="32" as="geometry" />
        </mxCell>
        <mxCell id="-olVPYCpMihl_OrQ9UhT-72" style="edgeStyle=orthogonalEdgeStyle;rounded=0;orthogonalLoop=1;jettySize=auto;html=1;entryX=0.25;entryY=1;entryDx=0;entryDy=0;" parent="-olVPYCpMihl_OrQ9UhT-76" source="-olVPYCpMihl_OrQ9UhT-73" target="-olVPYCpMihl_OrQ9UhT-70" edge="1">
          <mxGeometry relative="1" as="geometry">
            <Array as="points">
              <mxPoint x="50" y="170" />
              <mxPoint x="50" y="170" />
            </Array>
          </mxGeometry>
        </mxCell>
        <mxCell id="-olVPYCpMihl_OrQ9UhT-73" value="Funcky core" style="rounded=0;whiteSpace=wrap;html=1;" parent="-olVPYCpMihl_OrQ9UhT-76" vertex="1">
          <mxGeometry x="20" y="210" width="120" height="60" as="geometry" />
        </mxCell>
        <mxCell id="-olVPYCpMihl_OrQ9UhT-69" value="" style="edgeStyle=orthogonalEdgeStyle;rounded=0;orthogonalLoop=1;jettySize=auto;html=1;" parent="-olVPYCpMihl_OrQ9UhT-76" source="-olVPYCpMihl_OrQ9UhT-70" target="-olVPYCpMihl_OrQ9UhT-73" edge="1">
          <mxGeometry relative="1" as="geometry">
            <Array as="points">
              <mxPoint x="120" y="110" />
              <mxPoint x="120" y="110" />
            </Array>
          </mxGeometry>
        </mxCell>
        <mxCell id="-olVPYCpMihl_OrQ9UhT-74" value="" style="shape=image;html=1;verticalAlign=top;verticalLabelPosition=bottom;labelBackgroundColor=#ffffff;imageAspect=0;aspect=fixed;image=https://cdn3.iconfinder.com/data/icons/file-extension-vol-1/48/Dat_file_database_extension_data-128.png" parent="-olVPYCpMihl_OrQ9UhT-76" vertex="1">
          <mxGeometry x="132" y="150" width="48" height="48" as="geometry" />
        </mxCell>
        <mxCell id="-olVPYCpMihl_OrQ9UhT-75" value="" style="shape=image;html=1;verticalAlign=top;verticalLabelPosition=bottom;labelBackgroundColor=#ffffff;imageAspect=0;aspect=fixed;image=https://cdn3.iconfinder.com/data/icons/file-extension-vol-1/48/csv_file_database_extension_data-128.png" parent="-olVPYCpMihl_OrQ9UhT-76" vertex="1">
          <mxGeometry y="142" width="48" height="48" as="geometry" />
        </mxCell>
        <mxCell id="V1ucXP8R5NVPJcuvI5tV-1" value="" style="shape=image;html=1;verticalAlign=top;verticalLabelPosition=bottom;labelBackgroundColor=#ffffff;imageAspect=0;aspect=fixed;image=https://cdn2.iconfinder.com/data/icons/whcompare-blue-green-web-hosting-1/455/sftp-128.png" vertex="1" parent="1">
          <mxGeometry x="-120" y="1520" width="80" height="80" as="geometry" />
        </mxCell>
        <mxCell id="V1ucXP8R5NVPJcuvI5tV-3" value="customer.dat&lt;br style=&quot;font-size: 12px;&quot;&gt;account.dat" style="text;html=1;strokeColor=none;fillColor=none;align=left;verticalAlign=middle;whiteSpace=wrap;rounded=0;fontStyle=1;fontSize=12;" vertex="1" parent="1">
          <mxGeometry x="-120" y="1600" width="120" height="20" as="geometry" />
        </mxCell>
      </root>
    </mxGraphModel>
  </diagram>
</mxfile>
